<svg version="1.1" xmlns="http://www.w3.org/2000/svg" xmlns:xlink="http://www.w3.org/1999/xlink" x="0" y="0" viewBox="0 0 1000 1000" xml:space="preserve"><style type="text/css">.st0{fill:#231f20}.st1{fill:#fff}.st2{fill:#1cb0f6}.st3{fill:#d33131}.st4{fill:#7ac70c}.st5{fill:#ffc200}.st6{fill:#3871db}.st7{fill:#ffce00}.st8{stroke:#7a221e;stroke-width:2;stroke-miterlimit:10}.st8,.st9{fill:#7a221e}.st10{fill:#ff9100}.st11{fill:#262626}.st12,.st13{fill:#fff;stroke:#fff;stroke-width:3.3349;stroke-miterlimit:10}.st13{fill:none;stroke:#1cb0f6;stroke-width:1.9204}.st14,.st15{opacity:.53;fill:#fff}.st15{opacity:.5}.st16{fill:none;stroke:#fff;stroke-width:2;stroke-linecap:round;stroke-linejoin:round;stroke-miterlimit:10}.st17{fill:#c5dd9e}.st18{stroke-width:1.9456;stroke-miterlimit:10}.st18,.st19,.st20{fill:none;stroke:#fff}.st19{stroke-miterlimit:10;stroke-width:2}.st20{stroke-width:2.0472;stroke-linecap:round;stroke-linejoin:round}.st20,.st21,.st22{stroke-miterlimit:10}.st21{stroke-linecap:round;stroke-linejoin:round;fill:#7ac70c;stroke:#7ac70c;stroke-width:.8092}.st22{fill:none;stroke:#1cb0f6;stroke-width:2.3169}.st23{fill:#fcd114}.st24{fill:#90d8f4}.st25{clip-path:url(#SVGID_2_)}.st26{fill:#d52f2a}.st27{fill:#ffc300}.st28{fill:#ff9200}</style><g id="Layer_1"><path class="st0" d="M400 899.8V956h.1l39.9-14.2 39.9 14.2h.1v-56.2z"/><path class="st1" d="M600 700v56l40.8-14.5L680 756v-56zm0-99.9h80v80h-80z"/><path class="st2" d="M500 0h40.6v40.3H500z"/><path class="st1" d="M26.7 0h26.7v80H26.7z"/><path class="st2" d="M0 0h26.7v80H0z"/><path class="st3" d="M53.4 0h26.7v80H53.4z"/><path class="st4" d="M300 0h80v80h-80z"/><path class="st1" d="M426.7 0h26.7v80h-26.7z"/><path class="st4" d="M400 0h26.7v80H400z"/><path class="st3" d="M453.4 0h26.7v80h-26.7zM200 26.7h80v26.7h-80z"/><path class="st5" d="M200 53.4h80v26.7h-80z"/><path class="st0" d="M200 0h80v26.7h-80z"/><path class="st3" d="M227.2 100h27.3v46.6l-13.6-5.1-13.7 4.9z"/><path class="st0" d="M227.2 100H200v56l27.2-9.6z"/><path class="st5" d="M254.5 146.6L280 156v-56h-25.5z"/><path class="st1" d="M427.2 100h27.3v46.6l-13.6-5.1-13.7 4.9z"/><path class="st4" d="M427.2 100H400v56l27.2-9.6z"/><path class="st3" d="M454.5 146.6L480 156v-56h-25.5z"/><path class="st4" d="M300 100h80v56l-39.1-14.5L300 156z"/><path class="st1" d="M27.2 100.1h27.3v46.6l-13.6-5.1-13.7 4.9z"/><path class="st2" d="M27.2 100.1H0v56.1l27.2-9.7z"/><path class="st3" d="M54.5 146.7l25.5 9.4v-56H54.5z"/><path class="st5" d="M119.4 100h41.5v48.9l-20-7.4-21.5 7.7z"/><path class="st3" d="M119.4 100H100v56l19.4-6.8zm41.5 48.9L180 156v-56h-19.1z"/><path class="st6" d="M340.3 113.6c-8.1 0-14.6 6.5-14.6 14.6 0 7.2 5.2 13.2 12.1 14.4l3.1-1.1 2.6 1c6.5-1.5 11.4-7.3 11.4-14.3 0-8-6.5-14.6-14.6-14.6z"/><path class="st1" d="M326.7 122.9c-.4 1.1-.8 2.3-.9 3.6 2.4-.4 4.9-.7 7.7-.7 10.2 0 17.8 3.2 20.7 6.9.4-1.3.6-2.7.7-4.1-4.5-3.7-12.3-6.1-21.4-6.1-2.4-.1-4.6.1-6.8.4z"/><circle class="st1" cx="334.4" cy="128" r=".9"/><circle class="st1" cx="346" cy="131.5" r=".9"/><circle class="st1" cx="337.9" cy="133.8" r=".9"/><circle class="st1" cx="346" cy="121.1" r=".7"/><path class="st7" d="M377 41.1l-36.5-28.8c-.2-.1-.4-.1-.6 0l-36.5 28.8c-.1.1-.2.2-.2.4s.1.3.2.4l36.5 28.8c.1.1.2.1.3.1s.2 0 .3-.1L377 41.9c.1-.1.2-.2.2-.4s0-.3-.2-.4z"/><g><path class="st1" d="M508.5 4.3c-.4 0-.7.2-.8.6l-.6 1.7h-1.8c-.4 0-.7.2-.8.6-.1.3 0 .7.3.9l1.5 1.1-.6 1.7c-.1.3 0 .7.3.9.1.1.3.2.5.2s.3-.1.5-.2l1.5-1.1 1.5 1.1c.1.1.3.2.5.2s.3-.1.5-.2c.3-.2.4-.6.3-.9l-.6-1.7 1.4-1c.2-.1.4-.4.4-.7 0-.5-.4-.8-.8-.8h-1.8l-.6-1.7c-.1-.5-.4-.7-.8-.7z"/></g><g><path class="st1" d="M520.4 4.3c-.4 0-.7.2-.8.6l-.6 1.7h-1.8c-.4 0-.7.2-.8.6-.1.3 0 .7.3.9l1.5 1.1-.6 1.7c-.1.3 0 .7.3.9.1.1.3.2.5.2s.3-.1.5-.2l1.5-1.1 1.5 1.1c.1.1.3.2.5.2s.3-.1.5-.2c.3-.2.4-.6.3-.9l-.6-1.7 1.4-1c.2-.1.4-.4.4-.7 0-.5-.4-.8-.8-.8h-1.8l-.6-1.7c-.1-.5-.4-.7-.8-.7z"/></g><g><path class="st1" d="M532.3 4.3c-.4 0-.7.2-.8.6l-.6 1.7h-1.8c-.4 0-.7.2-.8.6-.1.3 0 .7.3.9l1.5 1.1-.6 1.7c-.1.3 0 .7.3.9.1.1.3.2.5.2s.3-.1.5-.2l1.5-1.1 1.5 1.1c.1.1.3.2.5.2s.3-.1.5-.2c.3-.2.4-.6.3-.9l-.6-1.7 1.4-1c.2-.1.4-.4.4-.7 0-.5-.4-.8-.8-.8h-1.8l-.7-1.9c-.1-.3-.4-.5-.7-.5z"/></g><g><path class="st1" d="M508.5 16.2c-.4 0-.7.2-.8.6l-.6 1.7h-1.8c-.4 0-.7.2-.8.6-.1.3 0 .7.3.9l1.5 1.1-.6 1.7c-.1.3 0 .7.3.9.1.1.3.2.5.2s.3-.1.5-.2l1.5-1.1 1.5 1.1c.1.1.3.2.5.2s.3-.1.5-.2c.3-.2.4-.6.3-.9l-.6-1.7 1.4-1c.2-.1.4-.4.4-.7 0-.5-.4-.8-.8-.8h-1.8l-.6-1.7c-.1-.5-.4-.7-.8-.7z"/></g><g><path class="st1" d="M520.4 16.2c-.4 0-.7.2-.8.6l-.6 1.7h-1.8c-.4 0-.7.2-.8.6-.1.3 0 .7.3.9l1.5 1.1-.6 1.7c-.1.3 0 .7.3.9.1.1.3.2.5.2s.3-.1.5-.2l1.5-1.1 1.5 1.1c.1.1.3.2.5.2s.3-.1.5-.2c.3-.2.4-.6.3-.9l-.6-1.7 1.4-1c.2-.1.4-.4.4-.7 0-.5-.4-.8-.8-.8h-1.8l-.6-1.7c-.1-.5-.4-.7-.8-.7z"/></g><g><path class="st1" d="M532.3 16.2c-.4 0-.7.2-.8.6l-.6 1.7h-1.8c-.4 0-.7.2-.8.6-.1.3 0 .7.3.9l1.5 1.1-.6 1.7c-.1.3 0 .7.3.9.1.1.3.2.5.2s.3-.1.5-.2l1.5-1.1 1.5 1.1c.1.1.3.2.5.2s.3-.1.5-.2c.3-.2.4-.6.3-.9l-.6-1.7 1.4-1c.2-.1.4-.4.4-.7 0-.5-.4-.8-.8-.8h-1.8l-.6-1.7c-.2-.5-.5-.7-.8-.7z"/></g><g><path class="st1" d="M508.5 28c-.4 0-.7.2-.8.6l-.6 1.7h-1.8c-.4 0-.7.2-.8.6-.1.3 0 .7.3.9l1.5 1.1-.6 1.7c-.1.3 0 .7.3.9.1.1.3.2.5.2s.3-.1.5-.2l1.5-1.1 1.5 1.1c.1.1.3.2.5.2s.3-.1.5-.2c.3-.2.4-.6.3-.9l-.6-1.7 1.4-1c.2-.1.4-.4.4-.7 0-.5-.4-.8-.8-.8h-1.8l-.6-1.7c-.1-.4-.4-.7-.8-.7z"/></g><g><path class="st1" d="M520.4 28c-.4 0-.7.2-.8.6l-.6 1.7h-1.8c-.4 0-.7.2-.8.6-.1.3 0 .7.3.9l1.5 1.1-.6 1.7c-.1.3 0 .7.3.9.1.1.3.2.5.2s.3-.1.5-.2l1.5-1.1 1.5 1.1c.1.1.3.2.5.2s.3-.1.5-.2c.3-.2.4-.6.3-.9l-.6-1.7 1.4-1c.2-.1.4-.4.4-.7 0-.5-.4-.8-.8-.8h-1.8l-.6-1.7c-.1-.4-.4-.7-.8-.7z"/></g><g><path class="st1" d="M532.3 28c-.4 0-.7.2-.8.6l-.6 1.7h-1.8c-.4 0-.7.2-.8.6-.1.3 0 .7.3.9l1.5 1.1-.6 1.7c-.1.3 0 .7.3.9.1.1.3.2.5.2s.3-.1.5-.2l1.5-1.1 1.5 1.1c.1.1.3.2.5.2s.3-.1.5-.2c.3-.2.4-.6.3-.9l-.6-1.7 1.4-1c.2-.1.4-.4.4-.7 0-.5-.4-.8-.8-.8h-1.8l-.6-1.7c-.2-.4-.5-.7-.8-.7z"/></g><g><g><path class="st8" d="M139.9 131.7c-2.3 0-4.1-.9-4.3-2.1v-4.1h-.7v4.5h.2c.1 0 .2.1.2.2v1.2c0 .1-.1.2-.2.2h-2.6c-.1 0-.2-.1-.2-.2v-1.2c0-.1.1-.2.2-.2h.2v-4.5h-.8c-.1 0-.2-.1-.2-.2v-.9c0-.1.1-.2.2-.2h.8V122c0-.1 0-.2.1-.2-.1-.2-.2-.4-.2-.5 0-.5.7-.5 1.1-.5 1 0 1.1.4 1.1.6 0 .2-.1.3-.1.4.1 0 .1.1.1.2v2.2h.7v-2.3c0-.1.1-.2.2-.2h8.2c.1 0 .2.1.2.2v2.3h.7V122c0-.1 0-.2.1-.2-.1-.2-.2-.4-.2-.5 0-.5.7-.5 1.1-.5 1 0 1.1.4 1.1.6 0 .2-.1.3-.1.4.1 0 .1.1.1.2v2.2h.6c.1 0 .2.1.2.2v.9c0 .1-.1.2-.2.2h-.6v4.5h.2c.1 0 .2.1.2.2v1.2c0 .1-.1.2-.2.2h-2.6c-.1 0-.2-.1-.2-.2v-1.2c0-.1.1-.2.2-.2h.2v-4.5h-.7v4.1c0 1.3-1.8 2.1-4.1 2.1z"/></g><g><path class="st8" d="M139.9 121.8c-2 0-2.7-.1-2.8-.5l-1.7-1.8-.1-.1c0-1.3 1.8-2.2 4.5-2.2 2.4 0 4.6.3 4.6 2.2 0 .7-.6 1-1.1 1.3-.3.1-.6.3-.6.4 0 .6-1.1.7-2.8.7z"/><path class="st8" d="M139.8 117.4c2.6 0 4.4.4 4.4 2 0 1-1.7 1.1-1.7 1.7 0 .4-1.5.4-2.6.4s-2.6 0-2.6-.3l-1.7-1.9c-.1-1.1 1.6-1.9 4.2-1.9m0-.4c-2.9 0-4.7.9-4.7 2.4 0 .1 0 .2.1.3l1.6 1.8c.2.5 1.2.6 3 .6 1.7 0 3 0 3-.9 0 0 .3-.2.5-.3.5-.3 1.2-.7 1.2-1.5.1-2.4-3.1-2.4-4.7-2.4z"/></g></g><path class="st5" d="M100.1 18.6h80v42.9h-80z"/><path class="st3" d="M100.1 0h80v18.6h-80zm0 61.5h80v18.6h-80z"/><g><g><path class="st9" d="M140.3 50.8c-2.7 0-5-.8-6.2-2v.8c0 .6-.4 1-1 1h-3.9c-.6 0-1-.4-1-1v-1.8c0-.4.2-.7.6-.9v-5.5h-.5c-.6 0-1-.4-1-1V39c0-.6.4-1 1-1h.5v-2.7c0-.1 0-.3.1-.4-.1-.2-.1-.5-.1-.7 0-1.5 1.7-1.5 2.3-1.5 2.2 0 2.4 1.2 2.4 1.6.2-.1.4-.2.6-.2h12.3c.2 0 .4.1.6.2v-.1c0-1.5 1.7-1.5 2.3-1.5 2.2 0 2.4 1.3 2.4 1.6 0 .2 0 .4-.1.6 0 .1.1.2.1.4V38h.2c.6 0 1 .4 1 1v1.4c0 .6-.4 1-1 1h-.2v5.4c.4.2.6.5.6.9v1.8c0 .6-.4 1-1 1h-3.9c-.6 0-1-.4-1-1v-.8c-1.1 1.4-3.4 2.1-6.1 2.1z"/><path class="st9" d="M149.4 33.9c.6 0 1.4.1 1.4.6 0 .4-.4.7-.6.9h.5v3.7h1.2v1.4h-1.2v7.3h.6v1.8h-3.9v-1.8h.6v-7.3h-1.6v6.4c-.1 1.7-2.8 3-6.1 3s-6-1.3-6.1-3v-6.4h-1.7v7.4h.6v1.8h-3.9v-1.8h.6v-7.4h-1.5v-1.4h1.5v-3.7h.4c-.2-.2-.5-.7-.5-1.1 0-.5.7-.5 1.3-.5.6 0 1.4.1 1.4.6 0 .4-.4.7-.6.9h.5V39h1.7v-3.8h12.3V39h1.6v-3.7h.4c-.2-.2-.5-.7-.5-1.1.3-.3 1-.3 1.6-.3m0-2c-1.9 0-2.7.7-3.1 1.4h-12.1c-.5-.8-1.4-1.4-3.1-1.4-2.9 0-3.3 1.6-3.3 2.5 0 .2 0 .5.1.7v2.1c-.9.2-1.5 1-1.5 1.9v1.4c0 .9.6 1.7 1.5 1.9v4c-.4.4-.6.9-.6 1.4v1.8c0 1.1.9 2 2 2h3.9c.8 0 1.4-.4 1.7-1 1.4.8 3.3 1.2 5.4 1.2 2.1 0 4-.5 5.4-1.2.3.6 1 1 1.7 1h3.9c1.1 0 2-.9 2-2v-1.8c0-.6-.2-1.1-.6-1.4v-4.1c.7-.3 1.2-1 1.2-1.8v-1.4c0-.8-.5-1.5-1.2-1.8v-2.1c0-.2.1-.4.1-.6 0-1.3-.9-2.7-3.4-2.7z"/></g><g><path class="st9" d="M140.3 35.9c-2.8 0-4.5-.1-4.9-1l-2.4-2.6c-.2-.2-.3-.4-.3-.7 0-2.4 2.8-4 7.4-4 2.5 0 7.6 0 7.6 4 0 1.4-1.3 2.1-2 2.5-.2.1-.4.2-.5.3-.3 1.5-2.4 1.5-4.9 1.5z"/><path class="st9" d="M140.2 28.6c3.9 0 6.6.5 6.6 3 0 1.5-2.6 1.7-2.6 2.6 0 .6-2.2.6-3.9.6-1.7 0-4 0-4-.5l-2.6-2.8c0-1.7 2.6-2.9 6.5-2.9m0-2c-6.2 0-8.4 2.6-8.4 5 0 .5.2 1 .5 1.3l2.2 2.4c.7 1.5 3.2 1.5 5.8 1.5 2.4 0 5.1 0 5.8-1.8 0 0 .1 0 .1-.1.8-.4 2.6-1.4 2.6-3.4-.1-4.9-6.3-4.9-8.6-4.9z"/></g></g><path class="st1" d="M700 26.9h80v26.4h-80z"/><path class="st3" d="M700 0h80v26.9h-80z"/><path class="st4" d="M700 53.2h80v26.9h-80z"/><path class="st1" d="M626.6 0h26.7v80h-26.7z"/><path class="st4" d="M600 0h26.7v80H600z"/><path class="st10" d="M653.3 0H680v80h-26.7z"/><path class="st5" d="M26.7 200.1h26.7v80H26.7z"/><path class="st3" d="M900 40h80v40h-80z"/><path class="st1" d="M900 0h80v40h-80z"/><path class="st2" d="M100 253.6h80v26.5h-80z"/><path class="st3" d="M100 200.1h80v26.6h-80z"/><path class="st1" d="M100 226.7h80v26.9h-80z"/><path class="st2" d="M0 200.1h26.7v80H0z"/><path class="st3" d="M53.4 200.1h26.7v80H53.4z"/><path class="st2" d="M800 26.7h80v26.7h-80z"/><path class="st3" d="M800 53.4h80v26.7h-80z"/><path class="st1" d="M800 0h80v26.7h-80z"/><path class="st2" d="M827.2 100h27.3v46.6l-13.7-5.1-13.6 4.9z"/><path class="st3" d="M827.2 100H800v56l27.2-9.6z"/><path class="st1" d="M854.5 146.6L880 156v-56h-25.5z"/><path class="st5" d="M27.2 300.1h27.3v46.5l-13.6-5-13.7 4.8z"/><path class="st3" d="M200 200.1h80v80h-80zm.1 100H280v55.8l-39.1-14.4-40.8 14.5z"/><path class="st2" d="M27.2 300.1H0v56l27.2-9.7z"/><path class="st3" d="M54.5 346.6L80 356v-55.9H54.5z"/><path class="st1" d="M127.2 300.1h27.3v46.5l-13.6-5-13.7 4.8z"/><path class="st3" d="M127.2 300.1H100v56l27.2-9.7z"/><path class="st2" d="M154.5 346.6L180 356v-55.9h-25.5z"/><g><path class="st3" d="M700 400.1h80v13.6h-80z"/></g><g><path class="st1" d="M700 413.7h80v13.8h-80z"/></g><g><path class="st1" d="M700 452.5h80v13.8h-80z"/></g><g><path class="st2" d="M700 427.4h80v25.2h-80z"/></g><g><path class="st3" d="M700 466.3h80V480h-80z"/></g><path class="st4" d="M0 453.6h80v26.5H0zm300 146.5h80V680h-80z"/><path class="st10" d="M0 400.1h80v26.6H0zm200 200h80V680h-80z"/><path class="st1" d="M0 426.7h80v26.9H0zm27.2 73.4h27.3v46.5l-13.6-5-13.7 4.8z"/><path class="st4" d="M27.2 500.1H0v56l27.2-9.7z"/><path class="st10" d="M54.5 546.6L80 556v-55.9H54.5z"/><path class="st3" d="M900 100h40.8v41.5L900 156z"/><path class="st1" d="M627.2 100.1h27.3v46.6l-13.7-5.1-13.6 4.9z"/><path class="st4" d="M627.2 100.1H600v56.1l27.2-9.7z"/><path class="st10" d="M654.5 146.7l25.5 9.4v-56h-25.5z"/><path class="st1" d="M727.4 100h27.1v46.6l-13.7-5.1-13.4 4.8z"/><g><path class="st1" d="M244.6 257.1c-10.1 0-18.3-8.2-18.3-18.3s8.2-18.3 18.3-18.3c4.1 0 8 1.4 11 3.7-4.2-5-10.4-8.1-17.4-8.1-12.5 0-22.7 10.2-22.7 22.7s10.2 22.7 22.7 22.7c7 0 13.3-3.2 17.4-8.1-3 2.3-6.8 3.7-11 3.7z"/><path class="st1" d="M260.4 229.7l4.1 6 7-2.1-4.4 5.8 4.1 6-6.8-2.5-4.5 5.8.2-7.2-6.8-2.5 6.9-2z"/></g><g><path class="st1" d="M253.9 341.3c-1.7 1.3-3.8 2.3-5.9 2.8l2.1.8c1.4-1 2.7-2.2 3.8-3.6zM239 309.4c-10.7 0-19.5 8.7-19.5 19.5 0 7.2 3.9 13.5 9.7 16.8l8.1-2.9c-5.1-2.6-8.6-7.9-8.6-14 0-8.7 7-15.7 15.7-15.7 3.6 0 6.8 1.2 9.4 3.2-3.5-4.2-8.8-6.9-14.8-6.9z"/></g><path class="st1" d="M258 321l3.5 5.2 6-1.8-3.8 4.9 3.5 5.1-5.8-2-3.8 4.9.1-6.2-5.8-2.1 5.9-1.8z"/><path class="st3" d="M300 400.1h80v80h-80z"/><path class="st1" d="M400 200.1h80v80h-80z"/><path class="st3" d="M727.4 100H700v56l27.4-9.7z"/><path class="st4" d="M779.9 155.9V100h-25.4v46.6z"/><path class="st1" d="M900 226.9h80v26.4h-80z"/><path class="st3" d="M900 200h80v26.9h-80z"/><path class="st11" d="M900 253.2h80v26.9h-80z"/><path class="st1" d="M927.4 300h27.1v46.6l-13.7-5.1-13.4 4.8z"/><path class="st3" d="M927.4 300H900v56l27.4-9.7z"/><path class="st11" d="M979.9 355.9V300h-25.4v46.6z"/><path class="st1" d="M940.8 141.5L980 156v-56h-39.2z"/><path class="st2" d="M800 400v80h80v-80z"/><path class="st3" d="M500 400v80h80v-80zm40.8 100H500v56l40.8-14.5L580 556v-56z"/><path class="st5" d="M500 240h80v40h-80z"/><path class="st2" d="M500 200h80v40h-80zm0 100h40.8v41.5L500 356z"/><path class="st5" d="M540.8 341.5L580 356v-56h-39.2z"/><path class="st2" d="M400 600v80h80v-80z"/><path class="st1" d="M300 240h80v40h-80z"/><path class="st3" d="M300 200h80v40h-80z"/><path class="st1" d="M300 300h40.8v41.5L300 356z"/><path class="st3" d="M340.8 341.5L380 356v-56h-39.2z"/><path class="st5" d="M357.8 434.8h-12.5l-3.8-11.8c-.1-.4-.6-.7-1-.7s-.9.3-1 .7l-3.8 11.8h-12.5c-.5 0-.9.3-1 .7-.1.4 0 .9.4 1.2l10.1 7.3-3.8 11.8c-.1.4 0 .9.4 1.2.2.1.4.2.6.2.2 0 .4-.1.6-.2l10.1-7.3 10.1 7.3c.2.1.4.2.6.2.2 0 .4-.1.6-.2.4-.3.5-.8.4-1.2l-3.8-11.8 10.1-7.3c.3-.2.5-.5.5-.9-.2-.5-.7-1-1.3-1zm0 92h-12.5l-3.8-11.8c-.1-.4-.6-.7-1-.7-.5 0-.9.3-1 .7l-3.8 11.8h-12.5c-.5 0-.9.3-1 .7-.1.4 0 .9.4 1.2l10.1 7.3-3.1 9.5 11.4-4 10.5 3.9-3-9.3 10.1-7.3c.3-.2.5-.5.5-.9-.2-.6-.7-1.1-1.3-1.1z"/><path class="st3" d="M300.1 500.1V556l29.4-10.4 3.1-9.5-10.1-7.3c-.4-.3-.5-.8-.4-1.2.1-.4.6-.7 1-.7h12.5l3.8-11.8c.1-.4.6-.7 1-.7.5 0 .9.3 1 .7l3.8 11.8h12.5c.6 0 1.1.5 1.1 1.1 0 .4-.2.7-.5.9l-10.1 7.3 3 9.3 28.6 10.6v-55.9h-79.7zM0 600.1h80v80H0z"/><g><path class="st5" d="M511 429.1h-.1c-.1-.1-.1-.2-.1-.3l1.7-5.4-4.6-3.3c-.1-.1-.1-.2-.1-.3s.1-.2.2-.2h5.6l1.7-5.4c0-.1.1-.2.2-.2s.2.1.2.2l1.7 5.4h5.6c.1 0 .2.1.2.2s0 .2-.1.3l-4.6 3.3 1.7 5.4c0 .1 0 .2-.1.3h-.2l-4.6-3.3-4.6 3.3h.3z"/><path class="st5" d="M515.7 414.4l1.8 5.5h5.8l-4.7 3.4 1.8 5.5-4.7-3.4-4.7 3.4 1.8-5.5-4.7-3.4h5.8l1.8-5.5m0-.4c-.2 0-.4.1-.4.3l-1.7 5.2h-5.5c-.2 0-.4.1-.4.3-.1.2 0 .4.2.5l4.4 3.2-1.7 5.2c-.1.2 0 .4.2.5.1.1.2.1.3.1s.2 0 .3-.1l4.4-3.2 4.4 3.2c.1.1.2.1.3.1s.2 0 .3-.1c.2-.1.2-.3.2-.5l-1.7-5.2 4.4-3.2c.1-.1.2-.2.2-.4 0-.3-.2-.5-.5-.5h-5.5l-1.7-5.2c-.1-.1-.3-.2-.5-.2z"/></g><g><path class="st5" d="M528.6 415.1s-.1 0-.1-.1l-.9-2.6-2.7.1s-.1 0-.1-.1v-.1l2.2-1.7-.9-2.6v-.1h.2l2.3 1.5 2.2-1.7h.2s.1.1 0 .1l-.8 2.6 2.3 1.5s.1.1 0 .1l-.1.1-2.7.1-.8 2.6c-.2.2-.2.3-.3.3.1 0 0 0 0 0z"/><path class="st5" d="M530.7 407.9l-.8 2.7 2.3 1.6-2.8.1-.8 2.7-.9-2.7-2.8.1 2.2-1.7-.9-2.7 2.3 1.6 2.2-1.7m0-.2h-.1l-2.1 1.6-2.2-1.5h-.2c-.1.1-.1.2-.1.3l.9 2.5-2.1 1.6c-.1.1-.1.2-.1.3 0 .1.1.2.2.2l2.7-.1.9 2.5c0 .1.1.2.2.2s.2-.1.2-.2l.7-2.5 2.7-.1c.1 0 .2-.1.2-.2s0-.2-.1-.3l-2.2-1.5.7-2.5c0-.1 0-.2-.1-.3h-.1z"/></g><g><path class="st5" d="M535.1 422.3l-.1-.1-.1-2.7-2.6-.7-.1-.1s0-.1.1-.1l2.6-1-.1-2.7s0-.1.1-.1h.1l1.7 2.1 2.6-1h.1v.1l-1.5 2.3 1.7 2.1v.1l-.1.1-2.6-.7-1.5 2.3c-.2.1-.2.1-.3.1.1 0 0 0 0 0z"/><path class="st5" d="M534.8 414.8l1.8 2.2 2.6-1-1.5 2.4 1.8 2.2-2.7-.7-1.5 2.4-.1-2.8-2.7-.7 2.6-1-.3-3m0-.2s-.1 0 0 0c-.2.1-.2.1-.2.2l.1 2.7-2.5.9c-.1 0-.2.1-.1.2 0 .1.1.2.2.2l2.6.7.1 2.7c0 .1.1.2.2.2h.1c.1 0 .1 0 .2-.1l1.5-2.2 2.6.7h.1c.1 0 .1 0 .2-.1s0-.2 0-.3l-1.7-2.1 1.4-2.2.1-.1c0-.1-.1-.2-.2-.2h-.1l-2.5.9-1.7-2.1h-.4z"/></g><g><path class="st5" d="M538.3 432.1l-2.3-1.6-2.2 1.6h-.2s-.1-.1 0-.1l.8-2.6-2.2-1.6s-.1-.1 0-.1l.1-.1h2.7l.8-2.6.1-.1c.1 0 .1 0 .1.1l.8 2.6h2.7s.1 0 .1.1v.1l-2.2 1.6.8 2.6c.3 0 .2.1.1.1.1 0 .1 0 0 0z"/><path class="st5" d="M536.1 425l.9 2.7h2.8l-2.3 1.7.9 2.7-2.3-1.7-2.3 1.7.9-2.7-2.3-1.7h2.8l.9-2.7m0-.2c-.1 0-.2.1-.2.2l-.8 2.5h-2.7c-.1 0-.2.1-.2.2s0 .2.1.3l2.1 1.6-.8 2.5c0 .1 0 .2.1.3h.2l2.1-1.6 2.1 1.6h.2c.1-.1.1-.2.1-.3l-.8-2.5 2.1-1.6c.1 0 .1-.1.1-.2s-.1-.2-.2-.2h-2.7l-.8-2.5c.1-.3 0-.3 0-.3z"/></g><path class="st5" d="M480 433.9h-47V400h-14.7v33.9H400v14.7h18.3v31.5H433v-31.5h47z"/><path class="st2" d="M433 400.1v33.8h47v14.7h-47v31.5h-14.7v-31.5H400v-14.7h18.3v-33.8H400v80h80v-80z"/><path class="st5" d="M480 518.9h-47V500h-14.7v18.9H400v14.7h18.3v15.9l14.7-5.2v-10.7h47z"/><g><path class="st2" d="M433 544.3l7.8-2.8L480 556v-22.4h-47zm-14.7 5.2v-15.9H400v-14.7h18.3V500H400v56l30.9-10.9zm22.5-49.5H433v18.9h47V500z"/></g><path class="st2" d="M680 635.9h-49V600h-10.7v35.9H600v10.7h20.3v33.5H631v-33.5h49z"/><path class="st3" d="M600 629.1v-.2h13.3V600H600v29.1zm80 .5v-29.5h-42v28.8h42zm0 23.7v.3h-42v26.5h-.6H680v-26.8zm-66.5 26.8h-.2v-26.5H600v-.4 26.9h13.5z"/><path class="st1" d="M180 633.9h-47V600h-14.7v33.9H100v14.7h18.3v31.5H133v-31.5h47z"/><g><path class="st5" d="M527.2 440.1s-.1 0-.1-.1l-1.3-2.4-2.7.5s-.1 0-.1-.1v-.1l1.9-2-1.3-2.4v-.1h.1l2.5 1.2 1.9-2h.1l.1.1-.4 2.7 2.5 1.2.1.1s0 .1-.1.1l-2.7.5-.4 2.7s0 .1-.1.1z"/><path class="st5" d="M528.2 432.6l-.4 2.8 2.5 1.2-2.8.5-.4 2.8-1.3-2.5-2.8.5 1.9-2-1.3-2.5 2.5 1.2 2.1-2m0-.2c-.1 0-.1 0-.2.1l-1.8 1.9-2.4-1.1h-.1c-.1 0-.1 0-.2.1s-.1.2 0 .3l1.3 2.3-1.8 1.9c-.1.1-.1.2 0 .3 0 .1.1.1.2.1l2.6-.5 1.3 2.3c0 .1.1.1.2.1s.2-.1.2-.2l.4-2.6 2.6-.5c.1 0 .2-.1.2-.2s0-.2-.1-.2l-2.4-1.1.4-2.6c-.2-.2-.2-.3-.4-.4z"/></g><g><path class="st5" d="M511 527.1h-.1c-.1-.1-.1-.2-.1-.3l1.7-5.4-4.6-3.3c-.1-.1-.1-.2-.1-.3 0-.1.1-.2.2-.2h5.6l1.7-5.4c0-.1.1-.2.2-.2s.2.1.2.2l1.7 5.4h5.6c.1 0 .2.1.2.2s0 .2-.1.3l-4.6 3.3 1.7 5.4c0 .1 0 .2-.1.3h-.2l-4.6-3.3-4.6 3.3h.3z"/><path class="st5" d="M515.7 512.4l1.8 5.5h5.8l-4.7 3.4 1.8 5.5-4.7-3.4-4.7 3.4 1.8-5.5-4.7-3.4h5.8l1.8-5.5m0-.4c-.2 0-.4.1-.4.3l-1.7 5.2h-5.5c-.2 0-.4.1-.4.3s0 .4.2.5l4.4 3.2-1.7 5.2c-.1.2 0 .4.2.5.1.1.2.1.3.1s.2 0 .3-.1l4.4-3.2 4.4 3.2c.1.1.2.1.3.1s.2 0 .3-.1c.2-.1.2-.3.2-.5l-1.7-5.2 4.4-3.2c.1-.1.2-.2.2-.4 0-.3-.2-.5-.5-.5h-5.5l-1.7-5.2c-.1-.1-.3-.2-.5-.2z"/></g><path class="st1" d="M180 718.9h-47V700h-14.7v18.9H100v14.7h18.3v15.9l14.7-5.2v-10.7h47z"/><path class="st3" d="M100 718.9h18.3V700H100v18.9zm18.3 30.6v-15.9H100V756l18.3-6.5zm14.7-5.2l7.8-2.8L180 756v-22.4h-47zm0-25.4h47V700h-47z"/><g><path class="st3" d="M133 633.9h47v-33.8h-47zm-33 0h18.3v-33.8H100v33.8zm80 14.7h-47v31.5h47v-31.5zm-61.7 31.5v-31.5H100v31.5h18.3z"/></g><g><path class="st5" d="M528.6 513.1s-.1 0-.1-.1l-.9-2.6-2.7.1s-.1 0-.1-.1v-.1l2.2-1.7-.9-2.6v-.1h.2l2.3 1.5 2.2-1.7h.2s.1.1 0 .1l-.8 2.6 2.3 1.5s.1.1 0 .1l-.1.1-2.7.1-.8 2.6c-.2.2-.2.3-.3.3.1 0 0 0 0 0z"/><path class="st5" d="M530.7 505.9l-.8 2.7 2.3 1.6-2.8.1-.8 2.7-.9-2.7-2.8.1 2.2-1.7-.9-2.7 2.3 1.6 2.2-1.7m0-.2h-.1l-2.1 1.6-2.2-1.5h-.2c-.1.1-.1.2-.1.3l.9 2.5-2.1 1.6c-.1.1-.1.2-.1.3 0 .1.1.2.2.2l2.7-.1.9 2.5c0 .1.1.2.2.2s.2-.1.2-.2l.7-2.5 2.7-.1c.1 0 .2-.1.2-.2s0-.2-.1-.3l-2.2-1.5.7-2.5c0-.1 0-.2-.1-.3h-.1z"/></g><g><path class="st5" d="M535.1 520.3l-.1-.1-.1-2.7-2.6-.7-.1-.1s0-.1.1-.1l2.6-1-.1-2.7s0-.1.1-.1h.1l1.7 2.1 2.6-1h.1v.1l-1.5 2.3 1.7 2.1v.1l-.1.1-2.6-.7-1.5 2.3c-.2.1-.2.1-.3.1.1 0 0 0 0 0z"/><path class="st5" d="M534.8 512.8l1.8 2.2 2.6-1-1.5 2.4 1.8 2.2-2.7-.7-1.5 2.4-.1-2.8-2.7-.7 2.6-1-.3-3m0-.2s-.1 0 0 0c-.2.1-.2.1-.2.2l.1 2.7-2.5.9c-.1 0-.2.1-.1.2 0 .1.1.2.2.2l2.6.7.1 2.7c0 .1.1.2.2.2h.1c.1 0 .1 0 .2-.1l1.5-2.2 2.6.7h.1c.1 0 .1 0 .2-.1s0-.2 0-.3l-1.7-2.1 1.4-2.2.1-.1c0-.1-.1-.2-.2-.2h-.1l-2.5.9-1.7-2.1h-.4z"/></g><g><path class="st5" d="M538.3 530.1l-2.3-1.6-2.2 1.6h-.2s-.1-.1 0-.1l.8-2.6-2.2-1.6s-.1-.1 0-.1l.1-.1h2.7l.8-2.6.1-.1c.1 0 .1 0 .1.1l.8 2.6h2.7s.1 0 .1.1v.1l-2.2 1.6.8 2.6c.3 0 .2.1.1.1.1 0 .1 0 0 0z"/><path class="st5" d="M536.1 523l.9 2.7h2.8l-2.3 1.7.9 2.7-2.3-1.7-2.3 1.7.9-2.7-2.3-1.7h2.8l.9-2.7m0-.2c-.1 0-.2.1-.2.2l-.8 2.5h-2.7c-.1 0-.2.1-.2.2s0 .2.1.3l2.1 1.6-.8 2.5c0 .1 0 .2.1.3h.2l2.1-1.6 2.1 1.6h.2c.1-.1.1-.2.1-.3l-.8-2.5 2.1-1.6c.1 0 .1-.1.1-.2s-.1-.2-.2-.2h-2.7l-.8-2.5c.1-.3 0-.3 0-.3z"/></g><g><path class="st5" d="M527.2 538.1s-.1 0-.1-.1l-1.3-2.4-2.7.5s-.1 0-.1-.1v-.1l1.9-2-1.3-2.4v-.1h.1l2.5 1.2 1.9-2h.1l.1.1-.4 2.7 2.5 1.2.1.1s0 .1-.1.1l-2.7.5-.4 2.7s0 .1-.1.1z"/><path class="st5" d="M528.2 530.6l-.4 2.8 2.5 1.2-2.8.5-.4 2.8-1.3-2.5-2.8.5 1.9-2-1.3-2.5 2.5 1.2 2.1-2m0-.2c-.1 0-.1 0-.2.1l-1.8 1.9-2.4-1.1h-.1c-.1 0-.1 0-.2.1s-.1.2 0 .3l1.3 2.3-1.8 1.9c-.1.1-.1.2 0 .3 0 .1.1.1.2.1l2.6-.5 1.3 2.3c0 .1.1.1.2.1s.2-.1.2-.2l.4-2.6 2.6-.5c.1 0 .2-.1.2-.2s0-.2-.1-.2l-2.4-1.1.4-2.6c-.2-.2-.2-.3-.4-.4z"/></g><circle class="st2" cx="339.8" cy="40.8" r="16.2"/><path class="st1" d="M324 36.9a16 16 0 0 0-.5 3.9c0 .5 0 1.1.1 1.6 4-1 8.6-1.6 13.3-1.6 7 0 13.5 1.3 18.6 3.4.2-1.1.4-2.2.4-3.4 0-.7-.1-1.3-.1-2-5.2-2.2-11.7-3.4-18.9-3.4-4.6 0-8.9.5-12.9 1.5z"/><circle class="st1" cx="345.1" cy="32.5" r="1"/><circle class="st1" cx="330.3" cy="44.6" r="1"/><circle class="st1" cx="335.4" cy="43.9" r=".8"/><circle class="st1" cx="332.7" cy="47.9" r=".8"/><circle class="st1" cx="348.9" cy="49.3" r=".8"/><circle class="st1" cx="350.8" cy="46.3" r=".8"/><path class="st7" d="M340.5 102.3c-.2-.1-.4-.1-.6 0l-36.5 28.8c-.1.1-.2.2-.2.4s.1.3.2.4l20.1 15.8 17.4-6.2 16.3 6 19.9-15.6c.1-.1.2-.2.2-.4s-.1-.3-.2-.4l-36.6-28.8z"/><path class="st2" d="M339.8 114.6c-8.9 0-16.2 7.3-16.2 16.2 0 6 3.3 11.2 8.1 14l9.2-3.3 7.7 2.8c4.5-2.9 7.4-7.9 7.4-13.6-.1-8.9-7.3-16.1-16.2-16.1z"/><path class="st1" d="M324 126.9a16 16 0 0 0-.5 3.9c0 .5 0 1.1.1 1.6 4-1 8.6-1.6 13.3-1.6 7 0 13.5 1.3 18.6 3.4.2-1.1.4-2.2.4-3.4 0-.7-.1-1.3-.1-2-5.2-2.2-11.7-3.4-18.9-3.4-4.6 0-8.9.5-12.9 1.5z"/><circle class="st1" cx="345.1" cy="122.5" r="1"/><circle class="st1" cx="330.3" cy="134.6" r="1"/><circle class="st1" cx="335.4" cy="133.9" r=".8"/><circle class="st1" cx="332.7" cy="137.9" r=".8"/><circle class="st1" cx="348.9" cy="139.3" r=".8"/><circle class="st1" cx="350.8" cy="136.3" r=".8"/><g><path class="st12" d="M835.4 447.9v-1c0-8.2 10.6-10.3 10.6-16.8 0-3-2.7-5.3-6.2-5.3-1.9 0-3.6.7-4.7 1.3-1.5.8-3 .8-3.9-.6l-1.1-1.6c-1-1.4-1-2.6.4-3.6 1.9-1.3 5.4-3 9.9-3 7.3 0 14.1 4.5 14.1 12.1 0 10.1-10.4 11.8-11.2 18.3l-.1 1.1c-.3 1.3-1 1.9-2.6 1.9H838c-1.6-.1-2.6-1-2.6-2.8zm0 10.9c0-1.7 1-2.7 2.7-2.7h2.6c1.7 0 2.6 1 2.6 2.7v2.2c0 1.8-.9 2.7-2.6 2.7h-2.6c-1.7 0-2.7-.9-2.7-2.7v-2.2z"/></g><circle class="st13" cx="40.7" cy="441.3" r="8"/><path class="st2" d="M40.6 434.1l.4 4.5 1.8-4.1-1 4.3 3-3.3-2.3 3.8 3.9-2.2L43 440l4.4-.9-4.1 1.7 4.4.5-4.4.4 4.1 1.8-4.4-1 3.4 3-3.9-2.3 2.3 3.8-3-3.3 1 4.3-1.8-4-.4 4.4-.4-4.4-1.8 4 1-4.3-3 3.3 2.3-3.8-3.9 2.3 3.4-3-4.4 1 4.1-1.8-4.4-.4 4.4-.5-4.1-1.7 4.4.9-3.4-2.9 3.9 2.2-2.3-3.8 3 3.3-1-4.3 1.8 4.1z"/><circle class="st13" cx="40.7" cy="524.5" r="8"/><path class="st2" d="M40.6 517.3l.4 4.5 1.8-4.1-1 4.3 3-3.3-2.3 3.8 3.9-2.2-3.4 2.9 4.4-1-4.1 1.8 4.4.4-4.4.5 4.1 1.8-4.4-1 3.4 2.9-3.9-2.2 2.3 3.8-3-3.3 1 4.3-1.8-4.1-.4 4.5-.4-4.5-1.8 4.1 1-4.3-3 3.3 2.3-3.8-3.9 2.2 3.4-2.9-4.4 1 4.1-1.8-4.4-.5 4.4-.4-4.1-1.8 4.4 1-3.4-2.9 3.9 2.2-2.3-3.8 3 3.3-1-4.3 1.8 4.1z"/><path class="st5" d="M945.7 233.8c-2.3 0-2.9 1.8-3.9 1.8 0 0 .2-3.8-1-3.8h-2.3s-1.5.3-1.7 1.2c.6-.3 1.8-.1 1.8 1.6 0 .4-.3.7-.5.9-1-.1-1.6-1.6-3.3-1.6-1.8 0-2.2 1.5-2.2 2.2v7.8l5.3-.8-1.6 2.9 8.3.1-1.9-3.1 5 1v-8.7c0-.1.3-1.5-2-1.5zm.7 85.8c-2.3 0-2.9 1.8-3.9 1.8 0 0 .2-3.8-1-3.8h-2.3s-1.5.3-1.7 1.2c.6-.3 1.8-.1 1.8 1.6 0 .4-.3.7-.5.9-1-.1-1.6-1.6-3.3-1.6-1.8 0-2.2 1.5-2.2 2.2v7.8l5.3-.8-1.6 2.9 8.3.1-1.9-3.1 5 1v-8.7s.3-1.5-2-1.5z"/><g><path class="st3" d="M540.5 40.3H500V50h80v-9.7h-39.5zm-40.5 20h80V70h-80zM540.5 0H580v10h-39.5zm0 20.3H580V30h-39.5z"/></g><path class="st1" d="M540.5 30H580v10.3h-39.5zm0-20H580v10.3h-39.5z"/><path class="st2" d="M540.6 100H500v56l40.6-14.4z"/><path class="st1" d="M500 50h80v10.3h-80zm0 20h80v10h-80z"/><g><path class="st1" d="M508.5 104.3c-.4 0-.7.2-.8.6l-.6 1.7h-1.8c-.4 0-.7.2-.8.6-.1.3 0 .7.3.9l1.5 1.1-.6 1.7c-.1.3 0 .7.3.9.1.1.3.2.5.2s.3-.1.5-.2l1.5-1.1 1.5 1.1c.1.1.3.2.5.2s.3-.1.5-.2c.3-.2.4-.6.3-.9l-.6-1.7 1.4-1c.2-.1.4-.4.4-.7 0-.5-.4-.8-.8-.8h-1.8l-.6-1.7c-.1-.5-.4-.7-.8-.7z"/></g><g><path class="st1" d="M520.4 104.3c-.4 0-.7.2-.8.6l-.6 1.7h-1.8c-.4 0-.7.2-.8.6-.1.3 0 .7.3.9l1.5 1.1-.6 1.7c-.1.3 0 .7.3.9.1.1.3.2.5.2s.3-.1.5-.2l1.5-1.1 1.5 1.1c.1.1.3.2.5.2s.3-.1.5-.2c.3-.2.4-.6.3-.9l-.6-1.7 1.4-1c.2-.1.4-.4.4-.7 0-.5-.4-.8-.8-.8h-1.8l-.6-1.7c-.1-.5-.4-.7-.8-.7z"/></g><g><path class="st1" d="M532.3 104.3c-.4 0-.7.2-.8.6l-.6 1.7h-1.8c-.4 0-.7.2-.8.6-.1.3 0 .7.3.9l1.5 1.1-.6 1.7c-.1.3 0 .7.3.9.1.1.3.2.5.2s.3-.1.5-.2l1.5-1.1 1.5 1.1c.1.1.3.2.5.2s.3-.1.5-.2c.3-.2.4-.6.3-.9l-.6-1.7 1.4-1c.2-.1.4-.4.4-.7 0-.5-.4-.8-.8-.8h-1.8l-.6-1.7c-.2-.5-.5-.7-.8-.7z"/></g><g><path class="st1" d="M508.5 116.2c-.4 0-.7.2-.8.6l-.6 1.7h-1.8c-.4 0-.7.2-.8.6-.1.3 0 .7.3.9l1.5 1.1-.6 1.7c-.1.3 0 .7.3.9.1.1.3.2.5.2s.3-.1.5-.2l1.5-1.1 1.5 1.1c.1.1.3.2.5.2s.3-.1.5-.2c.3-.2.4-.6.3-.9l-.6-1.7 1.4-1c.2-.1.4-.4.4-.7 0-.5-.4-.8-.8-.8h-1.8l-.6-1.7c-.1-.5-.4-.7-.8-.7z"/></g><g><path class="st1" d="M520.4 116.2c-.4 0-.7.2-.8.6l-.6 1.7h-1.8c-.4 0-.7.2-.8.6-.1.3 0 .7.3.9l1.5 1.1-.6 1.7c-.1.3 0 .7.3.9.1.1.3.2.5.2s.3-.1.5-.2l1.5-1.1 1.5 1.1c.1.1.3.2.5.2s.3-.1.5-.2c.3-.2.4-.6.3-.9l-.6-1.7 1.4-1c.2-.1.4-.4.4-.7 0-.5-.4-.8-.8-.8h-1.8l-.6-1.7c-.1-.5-.4-.7-.8-.7z"/></g><g><path class="st1" d="M532.3 116.2c-.4 0-.7.2-.8.6l-.6 1.7h-1.8c-.4 0-.7.2-.8.6-.1.3 0 .7.3.9l1.5 1.1-.6 1.7c-.1.3 0 .7.3.9.1.1.3.2.5.2s.3-.1.5-.2l1.5-1.1 1.5 1.1c.1.1.3.2.5.2s.3-.1.5-.2c.3-.2.4-.6.3-.9l-.6-1.7 1.4-1c.2-.1.4-.4.4-.7 0-.5-.4-.8-.8-.8h-1.8l-.6-1.7c-.2-.5-.5-.7-.8-.7z"/></g><g><path class="st1" d="M508.5 128c-.4 0-.7.2-.8.6l-.6 1.7h-1.8c-.4 0-.7.2-.8.6-.1.3 0 .7.3.9l1.5 1.1-.6 1.7c-.1.3 0 .7.3.9.1.1.3.2.5.2s.3-.1.5-.2l1.5-1.1 1.5 1.1c.1.1.3.2.5.2s.3-.1.5-.2c.3-.2.4-.6.3-.9l-.6-1.7 1.4-1c.2-.1.4-.4.4-.7 0-.5-.4-.8-.8-.8h-1.8l-.6-1.7c-.1-.4-.4-.7-.8-.7z"/></g><g><path class="st1" d="M520.4 128c-.4 0-.7.2-.8.6l-.6 1.7h-1.8c-.4 0-.7.2-.8.6-.1.3 0 .7.3.9l1.5 1.1-.6 1.7c-.1.3 0 .7.3.9.1.1.3.2.5.2s.3-.1.5-.2l1.5-1.1 1.5 1.1c.1.1.3.2.5.2s.3-.1.5-.2c.3-.2.4-.6.3-.9l-.6-1.7 1.4-1c.2-.1.4-.4.4-.7 0-.5-.4-.8-.8-.8h-1.8l-.6-1.7c-.1-.4-.4-.7-.8-.7z"/></g><g><path class="st1" d="M532.3 128c-.4 0-.7.2-.8.6l-.6 1.7h-1.8c-.4 0-.7.2-.8.6-.1.3 0 .7.3.9l1.5 1.1-.6 1.7c-.1.3 0 .7.3.9.1.1.3.2.5.2s.3-.1.5-.2l1.5-1.1 1.5 1.1c.1.1.3.2.5.2s.3-.1.5-.2c.3-.2.4-.6.3-.9l-.6-1.7 1.4-1c.2-.1.4-.4.4-.7 0-.5-.4-.8-.8-.8h-1.8l-.6-1.7c-.2-.4-.5-.7-.8-.7z"/></g><g><path class="st1" d="M508.5 140c-.4 0-.7.2-.8.6l-.6 1.7h-1.8c-.4 0-.7.2-.8.6-.1.3 0 .7.3.9l1.5 1.1-.6 1.7c-.1.3 0 .7.3.9.1.1.3.2.5.2s.3-.1.5-.2l1.5-1.1 1.5 1.1c.1.1.3.2.5.2s.3-.1.5-.2c.3-.2.4-.6.3-.9l-.6-1.7 1.4-1c.2-.1.4-.4.4-.7 0-.5-.4-.8-.8-.8h-1.8l-.6-1.7c-.1-.4-.4-.7-.8-.7z"/></g><g><path class="st1" d="M520.4 140c-.4 0-.7.2-.8.6l-.6 1.7h-1.8c-.4 0-.7.2-.8.6-.1.3 0 .7.3.9l1.5 1.1-.6 1.7c-.1.3 0 .7.3.9.1.1.3.2.5.2s.3-.1.5-.2l1.5-1.1 1.5 1.1c.1.1.3.2.5.2s.3-.1.5-.2c.3-.2.4-.6.3-.9l-.6-1.7 1.4-1c.2-.1.4-.4.4-.7 0-.5-.4-.8-.8-.8h-1.8l-.6-1.7c-.1-.4-.4-.7-.8-.7z"/></g><path class="st3" d="M540.5 100H580v10h-39.5zm0 20.3H580v9.7h-39.5z"/><path class="st1" d="M540.5 130H580v10.3h-39.5zm0-20H580v10.3h-39.5z"/><g><path class="st1" d="M580 156l-16.3-6H580"/></g><path class="st1" d="M530.1 144.9l-.2.5 6.3-2.2c0-.5-.4-.8-.8-.8h-1.8l-.6-1.7c-.1-.3-.4-.6-.8-.6s-.7.2-.8.6l-.6 1.7H529c-.4 0-.7.2-.8.6-.1.3 0 .7.3.9l1.6 1z"/><path class="st3" d="M560.5 140.3h-20v1.4l.4-.2 22.8 8.5H580v-9.7z"/><circle class="st3" cx="440.3" cy="239" r="23.7"/><path class="st1" d="M400.1 300.1V356l22.3-7.9c-3.2-4-5.1-9.1-5.1-14.7 0-13.1 10.6-23.7 23.7-23.7s23.7 10.6 23.7 23.7c0 5.7-2 10.8-5.3 14.9l20.7 7.6V300h-80z"/><path class="st3" d="M441 309.7c-13.1 0-23.7 10.6-23.7 23.7 0 5.6 1.9 10.7 5.1 14.7l18.5-6.6 18.4 6.8c3.3-4.1 5.3-9.3 5.3-14.9 0-13.1-10.6-23.7-23.6-23.7z"/><path class="st4" d="M800 200.1h80v80h-80z"/><circle class="st3" cx="840.3" cy="239" r="23.7"/><path class="st4" d="M800.1 300.1V356l22.3-7.9c-3.2-4-5.1-9.1-5.1-14.7 0-13.1 10.6-23.7 23.7-23.7s23.7 10.6 23.7 23.7c0 5.7-2 10.8-5.3 14.9l20.7 7.6V300h-80z"/><path class="st3" d="M841 309.7c-13.1 0-23.7 10.6-23.7 23.7 0 5.6 1.9 10.7 5.1 14.7l18.5-6.6 18.4 6.8c3.3-4.1 5.3-9.3 5.3-14.9 0-13.1-10.6-23.7-23.6-23.7zM800 600h80v80h-80z"/><path class="st1" d="M563.7 150H580v6.1"/><path class="st2" d="M600 200h40.6v40.3H600zm40.6 100H600v56l40.6-14.4z"/><path class="st3" d="M640.5 200v40.3H600V280h80v-80zm0 100v41.7l.4-.2 22.8 8.5 16.3 6.1V300z"/><g><g><path class="st1" d="M634.8 218.3l-4.2-1.2c.2.9.4 1.8.4 2.7v.5l3.8-2zm-14.9-8.8l-2.6-3.9-.8 4.7c1.1-.5 2.2-.7 3.4-.8zm-4 1.1l-4-2.5 1.2 4.7c.7-.9 1.7-1.6 2.8-2.2zm8.3-.5l-.8-4.5-2.6 3.9c1.2 0 2.3.2 3.4.6zm3.6 2.3l1.1-4.3-3.8 2.4c1 .5 1.9 1.1 2.7 1.9zm2.4 3.6l2.7-3.4-4.4.6c.8.8 1.3 1.8 1.7 2.8zm-17.6-2.8l-4.8-.7 3 3.8c.4-1.1 1-2.1 1.8-3.1zm10.4 16.7l3.2 3.2-.2-4.4c-.8.5-1.9 1-3 1.2zm4-1.9l4.2 1.5-1.9-3.9c-.7.9-1.4 1.7-2.3 2.4zm2.8-3.4l4.4-.3-3.4-2.8c-.1 1.1-.5 2.1-1 3.1zm-19.6-4.8c0-1 .1-2 .4-2.9l-4.7 1.3 4.3 2.3v-.7zm10.4 10.4c-.7 0-1.3-.1-1.9-.2l1.7 4.3 1.7-4.2c-.5.1-1 .1-1.5.1zm-10.3-9l-3.7 3.1 4.8.3c-.6-1-1-2.2-1.1-3.4zm1.4 4l-2.1 4.3 4.4-1.6c-.9-.8-1.7-1.7-2.3-2.7zm2.9 3.2l-.2 4.7 3.3-3.2c-1.1-.4-2.1-.9-3.1-1.5z"/></g><circle class="st1" cx="620.6" cy="219.8" r="8.8"/></g><path class="st2" d="M699.9 199.8h40.5v40.3h-40.5z"/><g><g><path class="st1" d="M633.8 319.3l-4.2-1.2c.2.9.4 1.8.4 2.7v.5l3.8-2zm-14.9-8.8l-2.6-3.9-.8 4.7c1.1-.5 2.2-.7 3.4-.8zm-4 1.1l-4-2.5 1.2 4.7c.7-.9 1.7-1.6 2.8-2.2zm8.3-.5l-.8-4.5-2.6 3.9c1.2 0 2.3.2 3.4.6zm3.6 2.3l1.1-4.3-3.8 2.4c1 .5 1.9 1.1 2.7 1.9zm2.4 3.6l2.7-3.4-4.4.6c.8.8 1.3 1.8 1.7 2.8zm-17.6-2.8l-4.8-.7 3 3.8c.4-1.1 1-2.1 1.8-3.1zm10.4 16.7l3.2 3.2-.2-4.4c-.8.5-1.9 1-3 1.2zm4-1.9l4.2 1.5-1.9-3.9c-.7.9-1.4 1.7-2.3 2.4zm2.8-3.4l4.4-.3-3.4-2.8c-.1 1.1-.5 2.1-1 3.1zm-19.6-4.8c0-1 .1-2 .4-2.9l-4.7 1.3 4.3 2.3v-.7zm10.4 10.4c-.7 0-1.3-.1-1.9-.2l1.7 4.3 1.7-4.2c-.5.1-1 .1-1.5.1zm-10.3-9l-3.7 3.1 4.8.3c-.6-1-1-2.2-1.1-3.4zm1.4 4l-2.1 4.3 4.4-1.6c-.9-.8-1.7-1.7-2.3-2.7zm2.9 3.2l-.2 4.7 3.3-3.2c-1.1-.4-2.1-.9-3.1-1.5z"/></g><circle class="st1" cx="619.6" cy="320.8" r="8.8"/></g><path class="st1" d="M900 400h40.6v40.3H900zm40.6 100H900v56l40.6-14.4z"/><path class="st4" d="M940.5 400v40.3H900V480h80v-80zm0 100v41.7l.4-.2 22.8 8.5 16.3 6.1V500z"/><path class="st2" d="M740.4 199.8h39.7v8h-39.7z"/><path class="st1" d="M740.4 207.9h39.7v8h-39.7zm-40.4 8h40.4v8H700z"/><path class="st1" d="M716.6 200.1h8v40.1h-8z"/><path class="st2" d="M699.9 300h40.5v40.3h-40.5z"/><path class="st1" d="M700 316.1h40.4v8H700z"/><path class="st1" d="M716.6 300.1h8v40.3h-8z"/><path class="st2" d="M740.4 215.9h39.7v8h-39.7z"/><path class="st1" d="M740.4 224h39.7v8h-39.7zM280 556v-56h-80v56l24.1-8.7c-1.4-2.8-1.9-5.5-1.9-8.8 0-1 .2-1.6.3-2.5.5-4.1 5.8-15 18-15 12.9 0 19.6 11.7 18.2 20.9.1-.6-.1.7-.1.7-.3 2-.7 3.1-1.6 4.9"/><path class="st2" d="M740.4 232h39.7v8h-39.7z"/><path class="st1" d="M700 240.1h80v8h-80z"/><path class="st2" d="M700 248.1h80v7.9h-80zm40.4 51.9h39.7v8h-39.7z"/><path class="st1" d="M740.4 308.1h39.7v8h-39.7z"/><path class="st2" d="M740.4 316.1h39.7v8h-39.7z"/><path class="st1" d="M740.4 324.2h39.7v8h-39.7z"/><path class="st2" d="M740.4 332.3h39.7v8h-39.7z"/><path class="st1" d="M700 256h80v7.9h-80z"/><path class="st2" d="M700 263.9h80v7.9h-80z"/><path class="st1" d="M700 271.8h80v7.9h-80zm0 68.5v8h21.9l18.9-6.7 18.1 6.7H780v-8z"/><g><path class="st2" d="M722.1 348.2H700v7.8zm36.6 0l21.2 7.9v.1h.1v-8z"/></g><g><g><path class="st3" d="M258.6 542.4c.1-.5.2-1 .2-1.5-.1.5-.1 1-.2 1.5z"/><path class="st2" d="M248.4 535.8c-8.2 0-7.8 7-16.1 7-6.3 0-9.2-4.8-10-6.2-.1.9-.2 1.7-.2 2.6 0 2.9.7 5.6 1.9 8l16.7-5.9h.1l16.2 6c.7-1.5 1.3-3.2 1.6-4.9-.5-1.1-3.1-6.6-10.2-6.6z"/></g><path class="st3" d="M240.5 520.9c-9.2 0-16.9 6.8-18.2 15.7.7 1.4 3.6 6.2 10 6.2 8.3 0 8-7 16.1-7 7.1 0 9.7 5.5 10.1 6.6.2-1 .3-2.1.3-3.1.1-10.2-8.2-18.4-18.3-18.4z"/></g><g><path transform="rotate(-45.001 212.827 516.654)" class="st11" d="M205.4 515.4h14.9v2.5h-14.9z"/><path transform="rotate(-45.001 214.994 518.823)" class="st11" d="M207.6 517.6h14.9v2.5h-14.9z"/><path transform="rotate(-45.001 217.163 520.992)" class="st11" d="M209.7 519.7h14.9v2.5h-14.9z"/></g><g><path transform="rotate(-45.001 266.7 518.959)" class="st11" d="M265.5 511.5h2.5v14.9h-2.5z"/><g><path transform="rotate(-45.001 271.686 519.608)" class="st11" d="M270.4 516.1h2.5v6.9h-2.5z"/><path transform="rotate(-45.001 266.086 514)" class="st11" d="M264.8 510.5h2.5v7h-2.5z"/></g><g><path transform="rotate(-45.001 267.35 523.945)" class="st11" d="M266.1 520.5h2.5v6.9h-2.5z"/><path transform="rotate(-45.001 261.749 518.337)" class="st11" d="M260.5 514.8h2.5v7h-2.5z"/></g></g><path class="st2" d="M600 440v40h.5l41.2-39.7L600 400zm40.8 60h-40.7l39.9 41.8 39.6-41.8z"/><path class="st3" d="M600.1 500h-.1v56l40-14.2z"/><path class="st1" d="M679.6 500L640 541.8l40 14.2v-56z"/><path class="st3" d="M641.5 440l.2.3-41.2 39.7H680v-40z"/><path class="st1" d="M600 400l41.5 40H680v-40z"/><path class="st3" d="M766.4 551l13.6 5v-56h-13.6z"/><path class="st1" d="M752.6 545.9l13.7 5V500h-13.7zm-38.9 5.2l13.8-4.9V500h-13.8z"/><path class="st2" d="M752.6 500h-25.2v46.3l13.4-4.8 11.8 4.4z"/><path class="st3" d="M713.8 500H700v56l13.8-4.9z"/><path class="st4" d="M931.4 415.9h-7.9l-2.4-7.5c-.1-.3-.3-.5-.6-.5s-.6.2-.6.5l-2.4 7.5h-7.8c-.3 0-.6.2-.6.5-.1.3 0 .6.2.8l6.3 4.6-2.4 7.5c-.1.3 0 .6.2.8.1.1.3.1.4.1s.3 0 .4-.1l6.3-4.6 6.3 4.6c.1.1.3.1.4.1s.3 0 .4-.1c.2-.2.3-.5.2-.8l-2.4-7.5 6.3-4.6c.2-.1.3-.3.3-.6.1-.4-.2-.7-.6-.7zm0 102h-7.9l-2.4-7.5c-.1-.3-.3-.5-.6-.5s-.6.2-.6.5l-2.4 7.5h-7.8c-.3 0-.6.2-.6.5-.1.3 0 .6.2.8l6.3 4.6-2.4 7.5c-.1.3 0 .6.2.8.1.1.3.1.4.1s.3 0 .4-.1l6.3-4.6 6.3 4.6c.1.1.3.1.4.1s.3 0 .4-.1c.2-.2.3-.5.2-.8l-2.4-7.5 6.3-4.6c.2-.1.3-.3.3-.6.1-.4-.2-.7-.6-.7z"/><circle class="st1" cx="41.1" cy="642.1" r="22.8"/><path class="st0" d="M41.4 607.7s3.5 29.7 7.9 36.1c-1.8 3.1-8.2 12-8.2 12L33 643.6c.1-.1 4.9-8.8 8.4-35.9z"/><path class="st3" d="M.1 700.1H80v55.8l-40-14.3L.1 756z"/><path class="st0" d="M50.8 646.4l-7.6 10.8s5.7 4.4 12.9 4.4S65 658 65 658s-9.2-.6-14.2-11.6zm-19.3.7l7.9 10.3s-12.1.3-19.2 7.9c-.6-6.9 2.4-13.6 11.3-18.2z"/><path class="st1" d="M40.1 713.3c-12.6 0-22.8 10.2-22.8 22.8 0 4.6 1.3 8.8 3.6 12.4l19-6.9 19.2 6.9c2.3-3.6 3.7-7.8 3.7-12.4.1-12.6-10.1-22.8-22.7-22.8z"/><path class="st0" d="M32.1 737.5l3.7 5.6 4.2-1.5 4.7 1.7c1.5-2.1 2.9-4.3 3.6-5.5-4.4-6.4-7.9-36.1-7.9-36.1-3.5 27.1-8.3 35.8-8.3 35.8zm22.8 9.5c-1.7-1.6-3.3-3.8-4.6-6.7l-2.8 4 7.4 2.7zm-21.6-3l-2.8-3.6c-4.3 2.2-7.2 4.9-9 7.8l11.8-4.2z"/><path class="st1" d="M263.5 646.5l-1.4-5.8c1.6-2.3 1.2-5.5-1.1-7.3-.6-.5-1.2-.8-1.9-1l-1.3-3.1-.7-5.8-4.4 4.3c-4 0-9.2.4-13.4 6.4-4 5.8-13 18.7-15.3 22-.3.5-.5.7-.5.7h22.8l2.1-5.4 2.1-5.1 3.8 3.4c0 1.1.1 2.4.5 3.2.6 2.6 3 4.9 4.7 4.5l-.1-1.6c1.7.1 3.5-.6 4.6-2 1.9-2.4 1.6-5.6-.5-7.4zm-6.1-8.8c-.4-.9.2-2 1.2-2.5l1.4 3.3c-1.1.5-2.2.1-2.6-.8z"/><path class="st14" d="M252.5 629.3v-7.7s-10.5-.7-16.7 6.7c-6.2 7.3-22.7 28.7-22.7 28.7h30.5s5.8-15.8 5.7-16.3c-.1-.5 3.2-11.4 3.2-11.4zm6.6 99.3c1.6-2.3 1.2-5.5-1.1-7.3-.6-.5-1.2-.8-1.9-1l-1.3-3.1-.7-5.8-4.4 4.3c-4 0-9.2.4-13.4 6.4-4 5.8-13 18.7-15.3 22-.3.5-.5.7-.5.7h10.9l1.6-.6 7.7-2.8h.1l3.4 1.2 1.3-3.3 2.1-5.1 3.8 3.4c0 1.1.1 2.4.5 3.2.6 2.6 3 4.9 4.7 4.5l-.1-1.6c1.7.1 3.5-.6 4.6-2 1.8-2.2 1.4-5.4-.7-7.3l-1.3-5.8zm-4.7-2.9c-.4-.9.2-2 1.2-2.5l1.4 3.3c-1.1.5-2.2.1-2.6-.8z"/><g><path class="st10" d="M240.8 700H200v18.9h.1v14.7h-.1V756l18.4-6.5 13.1-4.7h-10.9s.2-.3.5-.7c2.3-3.3 11.3-16.2 15.3-22 4.1-6 9.4-6.3 13.4-6.4l4.4-4.3.7 5.8 1.3 3.1c.7.2 1.3.5 1.9 1 2.3 1.8 2.7 5 1.1 7.3l1.4 5.8c2.1 1.9 2.4 5.1.7 7.3a5 5 0 0 1-4.6 2l.1 1.6c-1.8.4-4.2-1.9-4.7-4.5-.4-.8-.5-2.1-.5-3.2l-3.8-3.4-2.1 5.1-1.3 3.3L280 756v-56h-39.2z"/><path class="st10" d="M257 726.6l-1.4-3.3c-1.1.4-1.6 1.6-1.2 2.5.4.8 1.5 1.2 2.6.8z"/></g><path class="st15" d="M242.4 720.9c1.9-2.7 4.6-3.7 7.1-3.4v-7.8s-10.5-.7-16.7 6.7c-6.2 7.3-22.7 28.7-22.7 28.7h15.2c3.1-10.2 11.3-15.9 17.1-24.2z"/><path class="st16" d="M341.2 614s-14.2 4-14.2 12.5c0 11.7 35.2 2.9 35.2 16.4"/><path class="st17" d="M362.3 642.8c-.4-.6-7.4-.6-12.4 1.8 1.1-2.9 1.9-6.1 1.9-9 0-9.8-9.4-21.6-10.5-21.6-1.4 0-10.5 11.8-10.5 21.6 0 2.8.7 5.8 1.7 8.7-4.9-2.1-11.1-2-11.6-1.5-.4.5 1.8 9.5 6.5 13.2 4.4 3.4 12.4 3.9 14.1 3.3 1.8.6 9.7.1 14.1-3.3 5-3.7 7.1-12.7 6.7-13.2z"/><path class="st18" d="M362.3 642.8c-.4-.6-7.4-.6-12.4 1.8 1.1-2.9 1.9-6.1 1.9-9 0-9.8-9.4-21.6-10.5-21.6-1.4 0-10.5 11.8-10.5 21.6 0 2.8.7 5.8 1.7 8.7-4.9-2.1-11.1-2-11.6-1.5-.4.5 1.8 9.5 6.5 13.2 4.4 3.4 12.4 3.9 14.1 3.3 1.8.6 9.7.1 14.1-3.3 5-3.7 7.1-12.7 6.7-13.2z"/><circle class="st4" cx="341.4" cy="658.3" r="5"/><path class="st20" d="M341.3 652.3v12.6s-.2 4.1 5.2 4.1"/><g><path class="st1" d="M340.6 651.7c-.1 0-.1 0-.2-.1 0 0-.1-.1-.1-.2l.7-26.2c0-.1.1-.2.2-.2s.2.1.2.2l.7 26.2c0 .1 0 .1-.1.2 0 0-.1.1-.2.1h-1.2z"/><path class="st1" d="M341.3 625.2l.7 26.2h-1.5l.8-26.2m0-.5c-.3 0-.5.2-.5.5l-.7 26.2c0 .1 0 .3.1.4.1.1.2.2.4.2h1.5c.1 0 .3-.1.4-.2.1-.1.1-.2.1-.4l-.7-26.2c-.1-.3-.3-.5-.6-.5z"/></g><circle class="st18" cx="341.3" cy="658.2" r="6"/><path class="st20" d="M362.3 643c0 6.1-1.1 21.8-20.3 21.8-20.9 0-20.9-16-20.9-21.6"/><g><path class="st17" d="M350 736.7c1.1-2.9 1.9-6.1 1.9-9 0-9.8-9.4-21.6-10.5-21.6-1.4 0-10.5 11.8-10.5 21.6 0 2.8.7 5.8 1.7 8.7-4.9-2.1-11.1-2-11.6-1.5-.4.5 1.3 7.7 5.1 11.9l6.8-2.4 7.7-2.8h.1l15.8 5.8c4.2-4 6.1-12 5.7-12.5-.3-.6-7.3-.7-12.2 1.8zm-23.8 10l4.7-1.6z"/></g><g><path class="st1" d="M341.8 717.2c0-.3-.2-.5-.5-.5s-.5.2-.5.5l-.7 24.6.6-.2h.1l1.7.6-.7-25zm-16.6 29.9l2-.7-2 .7zm-.7.2l-2 .7 2-.7z"/><path class="st1" d="M363.2 734.5c-.2-5-4.8-7.2-10.4-8.4-.4-5-2.8-10-4.9-13.5 0-.1-4.1-6.8-6.2-7.5-.2-.1-.5-.2-.8-.1-.6.2-15 4.3-15 13.5 0 2.8 1.7 4.6 4.3 5.8-.2 1.1-.3 2.3-.3 3.4 0 2.2.4 4.5 1.1 7.1-2.7-.8-5.7-1.2-7.7-1.2-2.5 0-2.9.4-3.1.7-.1.1-.2.4-.2.6 0 .1-.1.2-.1.3 0 2.9 0 8.1 2.4 12.8l1.9-.7c-.6-1.1-1-2.2-1.3-3.3.6 1 1.3 2.1 2.1 3l2-.7c-3-3.1-4.7-8.4-5.1-10.5v-.3c.3 0 .7-.1 1.3-.1 2.4 0 5.9.5 8.9 1.7l2.1.9-.8-2.1c-1.1-3-1.7-5.8-1.7-8.3 0-8.6 7.4-18.9 9.4-20.5 1.9 1.6 9.5 11.9 9.5 20.5 0 2.6-.6 5.5-1.9 8.6l-.9 2.3 2.2-1.1c3.1-1.5 7.1-2.1 9.6-2.1.6 0 1 0 1.3.1v.5c-.5 2.4-2.4 8-5.7 10.9l2 .7c.8-.8 1.4-1.7 2-2.6-.4 1-.9 2-1.4 2.8l1.9.7c2.1-3.6 3.1-8.2 3.1-13.7.5.1.5 0 .4-.2zm-32.4-12.2c-1.7-.9-2.8-2.1-2.8-3.8 0-5 5.7-8.4 9.7-10.1-2.6 3.3-5.6 8.7-6.9 13.9zm29.2 11.2c-2.3 0-5.5.4-8.4 1.4.8-2.4 1.2-4.6 1.2-6.7 4.2.9 7.5 2.4 8.2 5.4-.2-.1-.6-.1-1-.1z"/></g><g><path class="st4" d="M358.4 748l-.2-.1c.5-.9 1-1.8 1.4-2.8-.6.9-1.3 1.8-2 2.6l-2-.7M328 718.5c0 1.7 1 2.9 2.8 3.8 1.4-5.3 4.4-10.6 6.9-13.9-4 1.7-9.7 5.1-9.7 10.1z"/><path class="st4" d="M318.3 749.5l6.9-2.5c-.8-.9-1.5-2-2.1-3 .3 1.1.8 2.2 1.3 3.3l-1.9.7c-2.4-4.8-2.4-10-2.4-12.8 0-.1 0-.2.1-.3 0-.3.1-.5.2-.6.2-.3.5-.7 3.1-.7 2 0 5 .3 7.7 1.2-.8-2.5-1.1-4.9-1.1-7.1 0-1.1.1-2.2.3-3.4-2.6-1.2-4.3-3-4.3-5.8 0-9.2 14.4-13.3 15-13.5.3-.1.5 0 .8.1 2 .7 6.1 7.5 6.2 7.5 2.1 3.5 4.5 8.5 4.9 13.5 5.7 1.2 10.2 3.3 10.4 8.4.1.1.1.3.1.4 0 5.5-1.1 10.1-3.1 13.7L380 756v-56h-80v56l22.6-8 1.9-.7"/><path class="st4" d="M361.1 733.6c-.8-2.9-4-4.4-8.2-5.4-.1 2.1-.5 4.3-1.2 6.7 2.9-1 6.1-1.4 8.4-1.4.3 0 .7 0 1 .1z"/></g><path class="st1" d="M448.6 623l-3.9 4.3 2.9 2.1-4.4 10.5 1.8-8.9-3.9-3 4-7.8c-1.6-1-3.3-1.5-5.1-1.5-9.7 0-17.6 16.8-17.6 26.5s7.9 16.9 17.6 16.9c9.7 0 17.6-7.2 17.6-16.9.1-6.7-3.6-16.6-9-22.2zm-3.9 99.2l2.9 2.1-4.4 10.5 1.8-8.9-3.9-3 4-7.8c-1.6-1-3.3-1.5-5.1-1.5-9.7 0-17.6 16.8-17.6 26.5 0 2.6.6 5.1 1.7 7.3l16.6-5.9h.1l15.3 5.7c1-2.1 1.5-4.5 1.5-7 0-6.6-3.7-16.6-9.1-22.2l-3.8 4.2z"/><path class="st2" d="M440.8 700H400v56l24.2-8.6c-1-2.2-1.7-4.6-1.7-7.3 0-9.7 7.9-26.5 17.6-26.5 1.8 0 3.5.6 5.1 1.5l-4 7.8 3.9 3-1.8 8.9 4.4-10.5-2.9-2.1 3.9-4.3c5.4 5.6 9.1 15.6 9.1 22.2 0 2.5-.5 4.9-1.5 7L480 756v-56h-39.2zM500 600l40 40 40-40z"/><path class="st5" d="M580 680v-80l-40 40z"/><path class="st1" d="M500 640v40l40-40-40-40z"/><path class="st3" d="M580 680l-40-40-40 40h80z"/><path class="st2" d="M540 723l23-23h-46z"/><path class="st5" d="M568.9 751.9L580 756v-56h-17l-23 23z"/><path class="st1" d="M540 723l-23-23h-17v56l10.8-3.8z"/><path class="st3" d="M540 723l-29.2 29.2 30-10.7 28.1 10.4zm73.3 28.3v-15.7H600v-.4V756l13.3-4.7zm27.5-9.8L680 756v-20.7.3h-42v6.9zM600 700v11.1-.2h13.3V700H600zm38 0v10.9h42v.7V700z"/><path class="st2" d="M631 700h-10.7v17.9H600v10.7h20.3v20.2L631 745v-16.4h49v-10.7h-49z"/><path class="st1" d="M100 400v80h80v-80z"/><path class="st2" d="M100 408.7h80v13.1h-80zm0 48.9h80v13.1h-80z"/><path class="st22" d="M128 446.5l11.8-20.4 11.8 20.4z"/><path class="st22" d="M151.6 433.3l-11.8 20.4-11.8-20.4z"/><path class="st3" d="M879.5 753.4c-.4-.2-.8-.6-.7-1.2.3-2 .5-3.9.5-5.8-.2-.2-.4-.4-.4-.8-.1-1.9-.3-3.7-.2-5.5-.1-3.3-.1-6.7 0-10v-.6c-.1-.1-.3-.3-.3-.5-.3-1.6-.4-3.2-.5-4.9 0-.4.2-.7.5-.9v-4.8c0-3 .2-5.9.5-8.9v-.2c.1-1.8.2-3.6.5-5.5v-2.3c-.4.1-.9.1-1.1-.2-.1-.1-.1-.2-.2-.3-.3.1-.6 0-.9-.2l-.1-.1c-1.2.9-2.4.7-4-.1-.3-.2-.5-.5-.5-.7h-64.1c0 .2 0 .3-.1.5-.4 1-2.3 1-3.4.9-.2.1-.5.1-.7 0-1 0-2.1 0-3.1-.2v.7c.2.2.4.4.4.7.5 5.3.4 10.5.2 15.8.1 1.8.2 3.6.1 5.4 1.4 4.5.8 9.4.3 14-.1 1.5-.3 3-.4 4.5.1 2.3 0 4.6-.4 6.8-.1 1.2-.1 2.3-.2 3.5v.2c.2-.1.4-.1.6 0 .1-.1.2-.3.3-.6.3-.5 1.1-.7 1.5-.2l.1-.1c.3-.5.9-.6 1.4-.3.4-.1.8-.1 1 .2h.2c.2-.2.4-.2.7-.1h.1c.1-.1.2-.1.4-.1.6-.3 1.4 0 1.5.9v.4l9.3-3.3c-.1-.5 0-1.1.7-1.2 1.4-.3 2.5-1.1 3.8-1.8.2-.3.4-.4.7-.4.4-.2.8-.4 1.3-.6.2-.2.5-.3.8-.2h.2c.1 0 .1 0 .2.1 0 0 .1 0 .1.1h.1s.1 0 .1.1c.2.2.3.6.2 1l9.7-3.4c.1-.2.2-.3.4-.5.5-.3.7-.8.9-1.3.3-.6 1-.6 1.4-.3.1-.1.2-.2.4-.2.1-.4.3-.6.6-.7.3-.5.8-.8 1.3-.6.7-.1 1.4.5 1.2 1.2.7.2 1.3.6 2 1.3.2.2.3.5.2.7l9.5 3.5c.1-.4.3-.7.7-.8.3-.1.7-.1 1-.2h.1c-.1-.2-.1-.4-.2-.6-.2-1.2 1.4-1.7 1.8-.7.2 0 .4.1.6.3l.1.1c.3-.1.6-.1.9 0 .4-.2.9-.1 1.2.4.9 1.4 1.5 3 2.4 4.4.1.1.1.3.2.4l9.4 3.5c-.2-.6.1-1.3.9-1.3h.1c.2 0 .3.1.5.1h.2c.5-.4 1.2-.4 1.6.2.1.3.1.5.2.8.4-.4 1-.3 1.4 0 .4-.2 1-.2 1.3.3.1.2.3.4.4.7.2 0 .5 0 .7.2-.3-.4-.2-.5-.1-.7z"/><path class="st5" d="M800 600h80v8.9h-80zm0 17.8h80v8.9h-80zm0 17.8h80v8.9h-80zm0 17.8h80v8.9h-80zm0 17.8h80v8.9h-80z"/><path class="st1" d="M900 600.1h80v80.3h-80z"/><path class="st5" d="M817.9 749.6l8.9-3.1V700h-8.9zM809 700h-8.9v55.9l8.9-3.1zm26.9 43.2l5-1.8 3.9 1.5V700h-8.9zm18 3l8.9 3.3V700h-8.9zm18 6.7l8.1 3V700h-8.1z"/><path class="st4" d="M940 700h-39.9v55.9l39.8-14.5.1.1 40 14.4V700zm-40-59.8h80v40.1h-80z"/><path class="st3" d="M971 631.6l-2.8-4.8c-.2-.4-.9-.4-1.1 0l-2.8 4.8c-.2.4.1 1 .5 1h.9v.4c0 2.8-2.2 5.1-4.9 5.3h-12.1l12-12c-5.3-5.3-13.8-5.3-19.1 0l-8.2 8.2v-10.8h1.4c2 0 3.6-1.6 3.6-3.6h-15.6c-1.5 0-2.8 1-3.2 2.4h-5.2c-1.5 0-2.8 1.3-2.8 2.8h4.3c-.1.3-.1.6-.1.9 0 2 1.6 3.6 3.6 3.6h2.4v13.8l-6.5-2.9v-2.1c0-.8-.6-1.4-1.4-1.4-.8 0-1.4.6-1.4 1.4v8.7c0 .8.6 1.4 1.4 1.4.8 0 1.4-.6 1.4-1.4v-.3l10.6 4.7c.1 0 .2.1.3.1l1 .5-1.9 4.4h-2.1c-.8 0-1.4.6-1.4 1.4 0 .8.6 1.4 1.4 1.4h8.7c.8 0 1.4-.6 1.4-1.4 0-.8-.6-1.4-1.4-1.4h-.3l1.9-4.3h12.3l.5.5-3.8 3.8h-2.7c-.8 0-1.4.6-1.4 1.4 0 .8.6 1.4 1.4 1.4h10.3c.8 0 1.4-.6 1.4-1.4 0-.6-.4-1.2-1-1.4l1.8-1.8c.6-.6.9-1.3.8-2.1v-.5h1.7c2 0 3.9-.9 5.1-2.3l1.9 2.4.2.2v4h-2.9c-.8 0-1.4.6-1.4 1.4 0 .8.6 1.4 1.4 1.4h8.7c.8 0 1.4-.6 1.4-1.4 0-.8-.6-1.4-1.4-1.4h-.1v-6.1c0-.3-.1-.6-.2-.9-.1-.5-.3-.9-.6-1.3l-4.6-5.8v-.3c4.1-.9 7.2-4.6 7.2-9v-.4h.9c.6-.2.9-.8.6-1.2z"/><path class="st1" d="M900.1 700v24.6H980V700h-40z"/><path class="st3" d="M962.7 717.5l-2.1-3.7c-.2-.3-.7-.3-.8 0l-2.1 3.7c-.2.3 0 .7.4.7h.7v.3c0 2.2-1.7 3.9-3.8 4.1h-9.4l9.2-9.2c-4-4-10.6-4-14.7 0l-6.3 6.3v-8.3h1.1c1.5 0 2.8-1.3 2.8-2.8h-12c-1.2 0-2.1.8-2.5 1.8h-4c-1.2 0-2.1 1-2.1 2.1h3.3c-.1.2-.1.4-.1.7 0 1.5 1.3 2.8 2.8 2.8h1.8v10.6l-5-2.2v-1.6c0-.6-.5-1.1-1.1-1.1-.6 0-1.1.5-1.1 1.1v6.7c0 .6.5 1.1 1.1 1.1.6 0 1.1-.5 1.1-1.1v-.3l8.1 3.6c.1 0 .1.1.2.1l.8.3-1.5 3.4H926c-.6 0-1.1.5-1.1 1.1 0 .6.5 1.1 1.1 1.1h6.7c.6 0 1.1-.5 1.1-1.1 0-.6-.5-1.1-1.1-1.1h-.3l1.5-3.3h9.4l.4.4-2.9 2.9h-2.1c-.6 0-1.1.5-1.1 1.1 0 .6.5 1.1 1.1 1.1h7.9c.6 0 1.1-.5 1.1-1.1 0-.5-.3-.9-.7-1l1.4-1.4c.4-.4.7-1 .6-1.6v-.4h1.3c1.6 0 3-.7 3.9-1.8l1.4 1.8c0 .1.1.1.1.2v3.1h-2.2c-.6 0-1.1.5-1.1 1.1 0 .6.5 1.1 1.1 1.1h6.7c.6 0 1.1-.5 1.1-1.1 0-.6-.5-1.1-1.1-1.1v-4.7c0-.2-.1-.5-.1-.7-.1-.4-.2-.7-.5-1l-3.5-4.5v-.3c3.2-.7 5.5-3.5 5.5-6.9v-.3h.7c.4 0 .6-.4.4-.7z"/><g><path class="st1" d="M700 600.1h80v80h-80zm0 99.9v55.9l39.9-14.4 40 14.3V700z"/><path class="st0" d="M762.6 631.5h-27.5c-2.7 0-4.9-2.2-4.9-4.9s2.2-4.9 4.9-4.9h27.5c2.7 0 4.9 2.2 4.9 4.9s-2.2 4.9-4.9 4.9z"/><path class="st0" d="M760.1 621.7c0 5.2-4.3 9.5-9.5 9.5h-15.9c-5.2 0-9.5-4.3-9.5-9.5"/><path class="st0" d="M732 635.9v22.6c3.8 0 6.8-3.1 6.8-6.8v-22.5c-3.7-.1-6.8 3-6.8 6.7zm22.9 0v22.6c3.8 0 6.8-3.1 6.8-6.8v-22.5c-3.7-.1-6.8 3-6.8 6.7zm-36.1-10.3h-2c-1.6 0-2.9-1.3-2.9-2.9v-.9c-2.3 0-4.1 1.9-4.1 4.1v4.1c0 2.4 2 4.4 4.4 4.4h4.8-2.6c1.4 0 2.6 1.1 2.6 2.6v4.1c2.3 0 4.1-1.9 4.1-4.1v-7c.1-2.4-1.9-4.4-4.3-4.4zm43.6 88.1H725c0 4.7 3.4 8.6 7.9 9.4.2.1.5.2.7.2-1.1 1.2-1.8 2.8-1.8 4.6v16.7l6.8-2.5v-18.5h17.7c-1 1.2-1.6 2.7-1.6 4.4v19.1l4.6 1.7c1.4-1.3 2.2-3 2.2-5v-20.1h.8c2.7 0 4.9-2.2 4.9-4.9.1-2.9-2.1-5.1-4.8-5.1zm-43.7 3.8h-2c-1.6 0-2.9-1.3-2.9-2.9v-.9c-2.3 0-4.1 1.9-4.1 4.1v4.1c0 2.4 2 4.4 4.4 4.4h4.8-2.6c1.4 0 2.6 1.1 2.6 2.6v4.1c2.3 0 4.1-1.9 4.1-4.1v-7c.1-2.4-1.9-4.4-4.3-4.4z"/></g><path class="st4" d="M100.2 880v-80h80.1"/><path class="st2" d="M180.3 800v80h-80.1"/><path class="st5" d="M180.3 813.1L113.4 880h6.7l60.2-60.1z"/><path class="st0" d="M167.2 800l-67 67v13h13.2l66.9-66.8V800z"/><path class="st5" d="M160.4 800l-60.2 60.2v6.8l67-67z"/><path class="st23" d="M167 899.8h-6.8 6.8z"/><path class="st4" d="M106.6 953.3l53.6-53.5h-60.1v55.9z"/><path class="st3" d="M117.2 949.5l49.8-49.7-49.8 49.7z"/><path class="st2" d="M179.9 955.6v-35.9l-26.4 26.5z"/><path class="st0" d="M167 899.8l-49.8 49.7 20.4-7.4 2.3-.8 8.6 3.1 31.4-31.4v-13.2zm-18.5 44.6l31.4-31.4-31.4 31.4z"/><path class="st5" d="M153.5 946.2l26.4-26.5V913l-31.4 31.4zm-36.3 3.3l49.8-49.7h-6.8l-53.6 53.5z"/><path class="st1" d="M200 400.1h80v80h-80z"/><circle class="st2" cx="240.6" cy="439" r="18.4"/><g><path transform="rotate(-45.001 215.683 418.588)" class="st11" d="M209.2 417.5h12.9v2.2h-12.9z"/><path transform="rotate(-45.001 217.608 420.54)" class="st11" d="M211.2 419.4h12.9v2.2h-12.9z"/><path transform="rotate(-45.001 219.465 422.423)" class="st11" d="M213 421.3h12.9v2.2H213z"/></g><g><path transform="rotate(-45.001 219.49 454.199)" class="st11" d="M218.4 447.7h2.2v12.9h-2.2z"/><path transform="rotate(-45.001 215.708 458.033)" class="st11" d="M214.6 451.6h2.2v12.9h-2.2z"/><g><path transform="rotate(-45.001 215.155 453.677)" class="st11" d="M214.1 450.7h2.2v6h-2.2z"/><path transform="rotate(-45.001 219.985 458.567)" class="st11" d="M218.9 455.5h2.2v6.1h-2.2z"/></g></g><g><g><path transform="rotate(-45.001 261.742 458.55)" class="st11" d="M258.7 457.4h6v2.2h-6z"/><path transform="rotate(-45.001 266.607 453.743)" class="st11" d="M263.6 452.6h6.1v2.2h-6.1z"/></g><g><path transform="rotate(-45.001 263.595 460.43)" class="st11" d="M260.6 459.3h6v2.2h-6z"/><path transform="rotate(-45.001 268.488 455.65)" class="st11" d="M265.4 454.5h6.1v2.2h-6.1z"/></g><g><path transform="rotate(-45.001 259.883 456.667)" class="st11" d="M256.9 455.6h6v2.2h-6z"/><path transform="rotate(-45.001 264.724 451.835)" class="st11" d="M261.7 450.7h6.1v2.2h-6.1z"/></g></g><g><path transform="rotate(-45.001 264.15 420.665)" class="st11" d="M263.1 414.2h2.2v12.9h-2.2z"/><g><path transform="rotate(-45.001 268.537 421.2)" class="st11" d="M267.4 418.2h2.2v6h-2.2z"/><path transform="rotate(-45.001 263.64 416.351)" class="st11" d="M262.5 413.3h2.2v6.1h-2.2z"/></g><g><path transform="rotate(-45.001 264.722 424.963)" class="st11" d="M263.6 422h2.2v6h-2.2z"/><path transform="rotate(-45.001 259.947 420.095)" class="st11" d="M258.9 417h2.2v6.1h-2.2z"/></g></g><path class="st3" d="M259 439c0-6.4-3.2-12-8.1-15.3-2.9-2-6.5-3.1-10.3-3.1-9.3 0-17 6.9-18.3 15.9.8 1.5 3.8 6.1 10 6.1 8.4 0 8-7.1 16.3-7.1 7.1 0 9.7 5.5 10.2 6.7v-.2c.1-.4.1-.9.2-1.3V439z"/><path class="st1" d="M241.3 900h-40.7l40 41.8 39.5-41.8z"/><path class="st3" d="M200.6 900h-.1v56l40.1-14.2z"/><path class="st2" d="M280.1 900l-39.5 41.8 39.9 14.2v-56z"/><path class="st3" d="M242 840l.2.3L201 880h79.5v-40z"/><path class="st2" d="M200.5 800l41.5 40h38.5v-40z"/><path class="st1" d="M200.5 840v40h.5l41.2-40-41.7-40z"/><path class="st1" d="M200.3 840v40l40.1-40-40-40h-.1z"/><path class="st3" d="M200.3 880h80.1v-40h-40.1z"/><path class="st2" d="M280.4 800h-80l40 40h-.1 40.1v-40z"/><g><path class="st5" d="M231.7 843.3l-.4-2.3-2.2-.4h-.1v-.1s0-.1.1-.1l2-1-.4-2.2s0-.1.1-.1h.1l1.6 1.6 2-1h.1v.1l-1 2 1.6 1.6v.1l-.1.1-2.2-.4-1 2c0 .1-.1.1-.2.1.1 0 0 0 0 0z"/><path class="st5" d="M234.5 837.8l-1 2.1 1.6 1.6-2.3-.4-1 2.1-.4-2.3-2.3-.4 2.1-1-.4-2.3 1.6 1.6 2.1-1m.2-.1c-.1-.1-.1-.1-.2 0l-1.9 1-1.5-1.5c-.1-.1-.1-.1-.2 0s-.1.1-.1.2l.3 2.1-1.9 1c-.1 0-.1.1-.1.2 0 0 0 .1.1.1 0 0 .1 0 .1.1l2.1.3.3 2.1s0 .1.1.1c0 0 .1 0 .1.1.1 0 .2 0 .2-.1l1-1.9 2.1.3h.2c.1-.1.1-.2 0-.3l-1.5-1.5 1-1.9c-.2-.3-.2-.3-.2-.4z"/></g><g><circle class="st5" cx="214.5" cy="840" r="4.5"/><path class="st5" d="M215 836.1h-.9l-.5-5 .9-.8 1 .8zm-.9 7.8h.9l.5 5.1-1 .8-.9-.8zm-3.4-4.3v.9l-5.1.5-.8-1 .8-.9zm7.7.9v-.9l5.1-.5.8.9-.8 1zm-6.3-3.5l-.3.3-.3.3-4-3.2.2-1.2 1.2-.2zm4.9 6.1l.3-.3.3-.3 4 3.2-.2 1.2-1.2.2zm-5.5-.6l.3.3.3.3-3.2 4-1.2-.2-.2-1.2zm6.1-4.9l-.3-.3-.3-.3 3.2-4 1.2.2.2 1.2z"/></g><g><path class="st5" d="M208.2 868s-.1 0 0 0l-1.9-1.3-1.8 1.3h-.2v-.1l.7-2.1-1.8-1.3v-.1s0-.1.1-.1h2.2l.7-2.1s0-.1.1-.1c0 0 .1 0 .1.1l.7 2.1h2.2s.1 0 .1.1v.1l-1.8 1.3.7 2.1-.1.1z"/><path class="st5" d="M206.3 862.1l.7 2.2h2.3l-1.9 1.4.7 2.2-1.9-1.4-1.9 1.4.7-2.2-1.9-1.4h2.3l.9-2.2m0-.2c-.1 0-.2.1-.2.1l-.7 2.1h-2.2c-.1 0-.2.1-.2.1s0 .2.1.2l1.8 1.3-.7 2.1c0 .1 0 .2.1.2h.2l1.8-1.3 1.8 1.3h.2c.1 0 .1-.1.1-.2l-.7-2.1 1.8-1.3c.1 0 .1-.1.1-.2s-.1-.2-.2-.2h-2.2l-.7-2.1c0 .1-.1 0-.2 0z"/></g><g><path class="st5" d="M209.4 814.8s-.1 0 0 0l-2.3.4-.4 2.2v.1c0 .1 0 0-.1 0 0 0-.1 0-.1-.1l-1-2-2.2.4s-.1 0-.1-.1v-.1l1.6-1.6-1-2v-.1h.1l2 1 1.6-1.6h.1l.1.1-.4 2.2 2 1c.1 0 .1.1.1.2z"/><path class="st5" d="M203.9 812l2.1 1 1.6-1.6-.4 2.3 2.1 1-2.3.4-.4 2.3-1-2.1-2.3.4 1.6-1.6-1-2.1m-.1-.2c-.1.1-.1.1 0 .2l1 1.9-1.5 1.5c-.1.1-.1.1 0 .2 0 .1.1.1.2.1l2.1-.3 1 1.9c0 .1.1.1.2.1 0 0 .1 0 .1-.1 0 0 0-.1.1-.1l.3-2.1 2.1-.3s.1 0 .1-.1 0-.1.1-.1c0-.1 0-.2-.1-.2l-1.9-1 .3-2.1v-.2c-.1-.1-.2-.1-.3 0l-1.5 1.5-1.9-1c-.3.2-.4.2-.4.2z"/></g><g><circle class="st5" cx="240.5" cy="915.5" r="4.5"/><path class="st5" d="M244.4 916v-1l5.1-.4.7.9-.7 1zm-7.8-1v1l-5.1.5-.7-1 .7-.9zm4.4-3.4h-1l-.5-5.1 1-.7 1 .7zm-1 7.8h1l.5 5.1-1 .8-1-.8zm3.6-6.3l-.3-.3-.4-.4 3.3-3.9 1.2.1.1 1.2zm-6.2 4.8l.4.4.3.3-3.3 3.9-1.2-.1-.1-1.2zm.7-5.5l-.3.4-.4.3-3.9-3.3.1-1.2 1.2-.1zm4.8 6.2l.4-.3.3-.4 3.9 3.3-.1 1.2-1.2.1z"/></g><g><path class="st5" d="M211.6 907.1l1.3-1.9-1.3-1.8v-.2h.1l2.1.7 1.3-1.8h.1s.1 0 .1.1v2.2l2.1.7s.1 0 .1.1c0 0 0 .1-.1.1l-2.1.7v2.2s0 .1-.1.1h-.1l-1.3-1.8-2.1.7s-.1 0-.1-.1c0 .1 0 0 0 0z"/><path class="st5" d="M217.4 905.3l-2.2.7v2.3l-1.4-1.9-2.2.7 1.4-1.9-1.4-1.9 2.2.7 1.4-1.9v2.3l2.2.9m.2 0c0-.1-.1-.2-.1-.2l-2.1-.7v-2.2c0-.1-.1-.2-.1-.2-.1 0-.2 0-.2.1l-1.3 1.8-2.1-.7c-.1 0-.2 0-.2.1v.2l1.3 1.8-1.3 1.8v.2c0 .1.1.1.2.1l2.1-.7 1.3 1.8c0 .1.1.1.2.1s.2-.1.2-.2v-2.2l2.1-.7v-.2z"/></g><g><path class="st5" d="M266.8 908.3c-.1 0-.1 0 0 0l-.4-2.3-2.2-.4h-.1v-.1s0-.1.1-.1l2-1-.4-2.2s0-.1.1-.1h.1l1.6 1.6 2-1h.1v.1l-1 2 1.6 1.6v.1l-.1.1-2.2-.4-1 2c-.1.1-.1.1-.2.1z"/><path class="st5" d="M269.6 902.9l-1 2.1 1.6 1.6-2.3-.4-1 2.1-.4-2.3-2.3-.4 2.1-1-.4-2.3 1.6 1.6 2.1-1m.1-.2c-.1-.1-.1-.1-.2 0l-1.9 1-1.5-1.5c-.1-.1-.1-.1-.2 0-.1 0-.1.1-.1.2l.3 2.1-1.9 1c-.1 0-.1.1-.1.2 0 0 0 .1.1.1 0 0 .1 0 .1.1l2.1.3.3 2.1s0 .1.1.1c0 0 .1 0 .1.1.1 0 .2 0 .2-.1l1-1.9 2.1.3h.2c.1-.1.1-.2 0-.3l-1.5-1.5 1-1.9c-.1-.2-.1-.3-.2-.4z"/></g><g><path class="st5" d="M242.4 936.1s-.1 0 0 0l-1.9-1.3-1.8 1.3h-.2v-.1l.7-2.1-1.8-1.3v-.1s0-.1.1-.1h2.2l.7-2.1s0-.1.1-.1c0 0 .1 0 .1.1l.7 2.1h2.2s.1 0 .1.1v.1l-1.8 1.3.7 2.1-.1.1z"/><path class="st5" d="M240.5 930.2l.7 2.2h2.3l-1.9 1.4.7 2.2-1.9-1.4-1.9 1.4.7-2.2-1.9-1.4h2.3l.9-2.2m0-.2c-.1 0-.2.1-.2.1l-.7 2.1h-2.2c-.1 0-.2.1-.2.1 0 .1 0 .2.1.2l1.8 1.3-.7 2.1c0 .1 0 .2.1.2h.2l1.8-1.3 1.8 1.3h.2c.1 0 .1-.1.1-.2l-.7-2.1 1.8-1.3c.1 0 .1-.1.1-.2s-.1-.2-.2-.2h-2.2l-.7-2.1c0 .1-.1 0-.2 0z"/></g><path class="st2" d="M80 900.3v55.9l-40-14.3L.1 956.2v-55.9z"/><path class="st1" d="M0 918.6h80v18.8H0z"/><path class="st3" d="M0 899.8h80v18.8H0z"/><circle class="st3" cx="39.7" cy="928.3" r="7.3"/><circle class="st1" cx="39.7" cy="928.3" r="4.9"/><circle class="st24" cx="39.7" cy="928.3" r="3.1"/><path class="st1" d="M119.7 500h41.4v48.9l-20-7.4-21.4 7.7z"/><path class="st2" d="M148.1 524l3.9-6.7h-7.7l-3.7-6.4-3.7 6.4h-7.7l3.9 6.7-3.9 6.7h7.7l3.7 6.4 3.7-6.4h7.7l-3.9-6.7zm.5-4.8L147 522l-1.6-2.8h3.2zm-2.7 4.8l-2.7 4.7h-5.1l-2.7-4.7 2.7-4.7h5.1l2.7 4.7zm-5.3-9.2l1.4 2.5h-2.8l1.4-2.5zm-8 4.4h3.2l-1.6 2.8-1.6-2.8zm0 9.5l1.6-2.8 1.6 2.8h-3.2zm8 4.4l-1.4-2.5h2.8l-1.4 2.5zm6.5-7.2l1.6 2.8h-3.2l1.6-2.8z"/><path class="st1" d="M172.1 553l8.1 3v-56h-8.1z"/><path class="st2" d="M172.1 500h-11v48.9l11 4.1z"/><path class="st1" d="M108.4 500h-8.2v56l8.2-2.9z"/><path class="st2" d="M119.7 549.2V500h-11.3v53.1"/><path class="st3" d="M300.5 799.1v80h80v-80z"/><path class="st2" d="M380.5 839.1v-40h-80v40"/><path class="st1" d="M321.7 820.3v37.6h37.6v-37.6z"/><path class="st2" d="M345.4 846.4c-2.5 2.5-6.5 2.5-8.9 0-2.5-2.5-2.5-6.5 0-8.9"/><path class="st2" d="M344.4 843.4c-2.5 2.5-6.5 2.5-8.9 0-2.5-2.5-2.5-6.5 0-8.9"/><path class="st2" d="M336.6 843.4c2.5 2.5 6.5 2.5 8.9 0 2.5-2.5 2.5-6.5 0-8.9"/><path class="st2" d="M340.9 846.5c2.5 2.5 6.5 2.5 8.9 0 2.5-2.5 2.5-6.5 0-8.9m-9.7 8.9c-2.5 2.5-6.5 2.5-8.9 0-2.5-2.5-2.5-6.5 0-8.9"/><g><path class="st9" d="M339.1 829.7h2.7v23h-2.7z"/></g><path class="st4" d="M321.7 852.1v5.8h37.6v-5.8z"/><path class="st5" d="M348.4 846.9h6.6v2.6h-6.6z"/><circle class="st1" cx="345.7" cy="848.2" r="2.7"/><circle class="st1" cx="335.3" cy="848.2" r="2.7"/><path class="st5" d="M345.7 844.3c-2.1 0-3.9 1.7-3.9 3.9 0 2.1 1.7 3.9 3.9 3.9s3.9-1.7 3.9-3.9c0-2.1-1.7-3.9-3.9-3.9zm0 6.3c-1.3 0-2.4-1.1-2.4-2.4 0-1.3 1.1-2.4 2.4-2.4s2.4 1.1 2.4 2.4c.1 1.3-1 2.4-2.4 2.4zm9.3-.4c-.4 0-.8-.3-.8-.7V847c0-.4.3-.7.7-.7.4 0 .7.3.7.7v2.5c.1.3-.2.7-.6.7z"/><circle class="st5" cx="345.7" cy="848.2" r="1.2"/><path class="st5" d="M345.4 844.8h.8v6.8h-.8z"/><path transform="rotate(-90 345.745 848.193)" class="st5" d="M345.4 844.8h.8v6.8h-.8z"/><path transform="rotate(180 329.297 848.193)" class="st5" d="M326 846.9h6.6v2.6H326z"/><path class="st5" d="M331.4 848.2c0 2.1 1.7 3.9 3.9 3.9s3.9-1.7 3.9-3.9c0-2.1-1.7-3.9-3.9-3.9s-3.9 1.8-3.9 3.9zm1.4 0c0-1.3 1.1-2.4 2.4-2.4 1.3 0 2.4 1.1 2.4 2.4 0 1.3-1.1 2.4-2.4 2.4-1.3 0-2.4-1.1-2.4-2.4zm-6.8 2c.4 0 .8-.3.8-.7V847c0-.4-.3-.7-.7-.7-.4 0-.7.3-.7.7v2.5c-.1.3.2.7.6.7z"/><circle class="st5" cx="335.3" cy="848.2" r="1.2"/><path transform="rotate(180 335.255 848.193)" class="st5" d="M334.9 844.8h.8v6.8h-.8z"/><path transform="rotate(-90 335.255 848.193)" class="st5" d="M334.9 844.8h.8v6.8h-.8z"/><path class="st4" d="M353.1 830.9c-1.3-2.5-3.8-4.2-6.8-4.2s-5.6 1.7-6.8 4.2h13.6z"/><path class="st4" d="M341.5 830.9c-1.3-2.5-3.8-4.2-6.8-4.2s-5.6 1.7-6.8 4.2h13.6z"/><path class="st4" d="M339.6 825c-2.1-2.1-5.2-2.7-7.8-1.8l5.5 5.5h4.3c-.3-1.3-1-2.6-2-3.7z"/><path class="st4" d="M349.3 823.2c-2.7-.9-5.7-.3-7.8 1.8-1.1 1.1-1.7 2.3-2 3.7h4.3l5.5-5.5z"/><path class="st4" d="M338 827.1h5v2.5h-5z"/><g><defs><path id="SVGID_1_" d="M399.9 799.1h80v80h-80z"/></defs><use xlink:href="#SVGID_1_" overflow="visible" fill="#231f20"/><clipPath id="SVGID_2_"><use xlink:href="#SVGID_1_" overflow="visible"/></clipPath><g class="st25"><path class="st26" d="M455.6 847.5l-26.8-26.8 7.6-7.6c7.4-7.4 19.4-7.4 26.8 0 7.4 7.4 7.4 19.4 0 26.8l-7.6 7.6z"/><path class="st26" d="M489.2 866.6L450 827.4l-7.5 7.5c-10.1 10.1-10.1 26.4 0 36.5l2.7 2.7c10.1 10.1 26.4 10.1 36.5 0l7.5-7.5z"/><path class="st0" d="M490.4 850.2l-18.7-18.7-8.3 8.3c-5.2 5.2-5.2 13.5 0 18.7 5.2 5.2 13.5 5.2 18.7 0l8.3-8.3zm-51.5-11.7l-4.9-4.9 12.4-12.4c1.3-1.3 3.5-1.3 4.8 0l.1.1c1.3 1.3 1.3 3.5 0 4.8l-12.4 12.4z"/><g><path class="st26" d="M415.9 846c-4.1-4.1-.9-13.8 7-21.8 7.9-7.9 17.7-11.1 21.8-7L415.9 846z"/><path class="st26" d="M428.1 828.5l-3.3-11.9-9.1 17.8z"/><path class="st27" d="M424.7 826.3c1.9 1.3 2.4 4 1 5.9-1.3 1.9-4 2.4-5.9 1"/><path class="st26" d="M419.4 828.3l8.8-8-9.1 17.8zm27.4-2.1l-23.1 16.3-2.2-2.2 14.6-14.6z"/><path class="st26" d="M429.4 841.9l-11.3 1.8 6.6-6.5z"/><path class="st28" d="M407.1 862c-2.5-2.5-2.5-6.6 0-9.2 2.5-2.5 6.6-2.5 9.2 0"/><path class="st7" d="M418.5 846c2.5 2.5 2.5 6.6 0 9.2-2.5 2.5-6.6 2.5-9.2 0m2.2 5.8c1.5 1.5 1.5 3.9 0 5.4-1.5 1.5-3.9 1.5-5.4 0"/><path class="st26" d="M436.9 822.2l-4-14.5-8.3 16.5z"/></g><path class="st26" d="M471.1 872.5h29.3v13.2h-29.3z"/></g></g><path class="st3" d="M300.6 899.8V956h.1l39.9-14.2 39.9 14.2h.1v-56.2z"/><path class="st2" d="M380.6 929.8v-30h-80v30"/><path class="st1" d="M359.4 948.5V911h-37.6v37.5l18.8-6.7z"/><path class="st2" d="M345.5 937.1c-2.5 2.5-6.5 2.5-8.9 0-2.5-2.5-2.5-6.5 0-8.9"/><path class="st2" d="M344.5 934.1c-2.5 2.5-6.5 2.5-8.9 0-2.5-2.5-2.5-6.5 0-8.9"/><path class="st2" d="M336.7 934.1c2.5 2.5 6.5 2.5 8.9 0 2.5-2.5 2.5-6.5 0-8.9"/><path class="st2" d="M341 937.2c2.5 2.5 6.5 2.5 8.9 0 2.5-2.5 2.5-6.5 0-8.9m-9.7 8.9c-2.5 2.5-6.5 2.5-8.9 0-2.5-2.5-2.5-6.5 0-8.9"/><g><path class="st9" d="M341.9 942.3v-21.9h-2.7v21.9l1.4-.5z"/></g><path class="st4" d="M359.4 943.7v-.9h-16.1l16.1 5.7zm-37.6-.9v5.7l16.1-5.7z"/><path class="st5" d="M348.5 937.6h6.6v2.6h-6.6z"/><circle class="st1" cx="345.8" cy="938.9" r="2.7"/><circle class="st1" cx="335.3" cy="938.9" r="2.7"/><path class="st5" d="M345.8 935c-2.1 0-3.9 1.7-3.9 3.9 0 2.1 1.7 3.9 3.9 3.9s3.9-1.7 3.9-3.9-1.7-3.9-3.9-3.9zm0 6.3c-1.3 0-2.4-1.1-2.4-2.4 0-1.3 1.1-2.4 2.4-2.4s2.4 1.1 2.4 2.4c.1 1.3-1 2.4-2.4 2.4zm9.3-.5c-.4 0-.8-.3-.8-.7v-2.4c0-.4.3-.7.7-.7.4 0 .7.3.7.7v2.4c.1.4-.2.7-.6.7z"/><circle class="st5" cx="345.8" cy="938.9" r="1.2"/><path class="st5" d="M345.4 935.5h.8v6.8h-.8z"/><path transform="rotate(-90 345.823 938.88)" class="st5" d="M345.4 935.5h.8v6.8h-.8z"/><path transform="rotate(180 329.375 938.88)" class="st5" d="M326.1 937.6h6.6v2.6h-6.6z"/><path class="st5" d="M331.5 938.9c0 2.1 1.7 3.9 3.9 3.9s3.9-1.7 3.9-3.9c0-2.1-1.7-3.9-3.9-3.9s-3.9 1.7-3.9 3.9zm1.4 0c0-1.3 1.1-2.4 2.4-2.4 1.3 0 2.4 1.1 2.4 2.4 0 1.3-1.1 2.4-2.4 2.4-1.3 0-2.4-1.1-2.4-2.4zm-6.8 1.9c.4 0 .8-.3.8-.7v-2.4c0-.4-.3-.7-.7-.7-.4 0-.7.3-.7.7v2.4c-.2.4.2.7.6.7z"/><circle class="st5" cx="335.3" cy="938.9" r="1.2"/><path transform="rotate(180 335.333 938.88)" class="st5" d="M334.9 935.5h.8v6.8h-.8z"/><path transform="rotate(-90 335.333 938.88)" class="st5" d="M334.9 935.5h.8v6.8h-.8z"/><path class="st4" d="M353.2 921.5c-1.3-2.5-3.8-4.2-6.8-4.2s-5.6 1.7-6.8 4.2h13.6z"/><path class="st4" d="M341.6 921.5c-1.3-2.5-3.8-4.2-6.8-4.2s-5.6 1.7-6.8 4.2h13.6z"/><path class="st4" d="M339.7 915.7c-2.1-2.1-5.2-2.7-7.8-1.8l5.5 5.5h4.3c-.3-1.3-1-2.6-2-3.7z"/><path class="st4" d="M349.3 913.9c-2.7-.9-5.7-.3-7.8 1.8-1.1 1.1-1.7 2.3-2 3.7h4.3l5.5-5.5z"/><path class="st4" d="M338.1 917.8h5v2.5h-5z"/><path class="st1" d="M440 941.8l40 14.2h-80.1z"/><path class="st26" d="M449.8 939.1l-19.7-19.7 5.6-5.6c5.4-5.4 14.2-5.4 19.7 0 5.4 5.4 5.4 14.2 0 19.7l-5.6 5.6z"/><path class="st0" d="M437.5 932.5l-3.6-3.6 9.1-9.1c1-1 2.6-1 3.5 0l.1.1c1 1 1 2.6 0 3.5l-9.1 9.1z"/><g><path class="st26" d="M420.6 938c-3-3-.7-10.2 5.1-16s13-8.1 16-5.1L420.6 938z"/><path class="st26" d="M429.6 925.1l-2.4-8.7-6.7 13z"/><path class="st27" d="M427.1 923.6c1.4 1 1.7 2.9.8 4.3-1 1.4-2.9 1.7-4.3.8"/><path class="st26" d="M423.2 925l6.5-5.8-6.7 13zm20.2-1.6l-17 12-1.6-1.6 10.7-10.7z"/><path class="st26" d="M430.6 935l-8.3 1.3 4.8-4.8z"/><path class="st28" d="M416.8 945.4c-1.2-1.2-1.2-3.1 0-4.2 1.2-1.2 3.1-1.2 4.2 0"/><path class="st7" d="M422.1 938c1.2 1.2 1.2 3.1 0 4.2-1.2 1.2-3.1 1.2-4.2 0m1 2.7c.7.7.7 1.8 0 2.5s-1.8.7-2.5 0"/><path class="st26" d="M436.1 920.5l-3-10.6L427 922z"/></g><path class="st26" d="M455.2 933.8l-9.5-9.5-5.5 5.5c-3.8 3.8-5.6 8.8-5.5 13.8l5.4-1.9 15.9 5.6-.3-.3c-3.8-3.5-3.9-9.4-.5-13.2z"/></g><g id="Layer_3"><path class="st1" d="M0 826.7h80v26.7H0z"/><path class="st3" d="M0 800h80v26.7H0z"/><path class="st2" d="M0 853.4h80v26.7H0z"/><circle class="st3" cx="39.7" cy="840" r="9.1"/><circle class="st1" cx="39.7" cy="840" r="6.1"/><circle class="st24" cx="39.7" cy="840" r="3.8"/></g></svg>